<svg width="87" height="87" viewBox="0 0 87 87" fill="none" xmlns="http://www.w3.org/2000/svg">
<path d="M43.5 87C67.5244 87 87 67.5244 87 43.5C87 19.4756 67.5244 0 43.5 0C19.4756 0 0 19.4756 0 43.5C0 67.5244 19.4756 87 43.5 87Z" fill="url(#paint0_linear)"/>
<mask id="mask0" mask-type="alpha" maskUnits="userSpaceOnUse" x="0" y="0" width="87" height="87">
<path d="M43.5 87C67.5244 87 87 67.5244 87 43.5C87 19.4756 67.5244 0 43.5 0C19.4756 0 0 19.4756 0 43.5C0 67.5244 19.4756 87 43.5 87Z" fill="url(#paint1_linear)"/>
</mask>
<g mask="url(#mask0)">
<path d="M28.81 51.7401C18.25 48.5801 -14.09 89.5001 49 87.8501C50.836 87.7828 52.6521 87.4458 54.39 86.8501C55.25 86.1301 55.32 71.8501 54.96 70.5501C54.6 69.2501 52.67 56.3101 41 51.0901L40.5 45.5001C41.8206 45.1503 43.0251 44.4572 43.9911 43.4912C44.9571 42.5252 45.6502 41.3207 46 40.0001L46.5 27.0001C46.5 27.0001 44.64 22.1901 43.5 22.0001C42.36 21.8101 31.42 26.3901 29.86 30.5001C29.86 30.5001 25.63 33.9301 29.86 38.0001C29.86 38.0001 31.53 50.6101 31 50.5001C30.47 50.3901 30.25 51.0501 29.86 51.1601C29.4728 51.2768 29.1149 51.4745 28.81 51.7401Z" fill="#FFB289"/>
<path d="M75.31 62.42C75.31 61.18 94.31 47.15 72.71 43.27C72.41 43.27 65.59 38.76 70.38 30.27C75.17 21.78 52.44 9 38.22 12.63C35.7 13.29 34.22 13.96 34.16 18.32C34.16 18.32 8.39997 24.64 29.02 47.82C29.5282 48.8799 29.6925 50.0721 29.49 51.23C29.9555 50.993 30.485 50.9124 31 51C31.53 51.11 30.87 37.37 30.87 37.37C26.73 33.37 30.96 31.49 30.96 31.49C32.54 27.38 42.18 22.66 43.3 22.87C44.42 23.08 45.72 27 45.72 27L45.36 39.41C44.3 43.9 39 45.19 39 45.19L39.38 52C51 57.28 53.56 69.23 54 70.55C54.44 71.87 55.23 86.08 54.36 86.8C54.2182 86.91 54.0545 86.9884 53.88 87.03C56.27 86.23 74.17 79.76 80.34 67.52C80.4 67.5 75.31 63.64 75.31 62.42Z" fill="#13A024"/>
<path d="M75.31 62.42C75.31 61.18 94.31 47.15 72.71 43.27C72.41 43.27 65.59 38.76 70.38 30.27C75.17 21.78 52.44 9 38.22 12.63C35.7 13.29 34.22 13.96 34.16 18.32C34.16 18.32 8.39997 24.64 29.02 47.82C29.532 48.9746 29.6987 50.2527 29.5 51.5C29.96 51.28 30.5 50.9 31 51C31.5 51.1 30.84 37.41 30.84 37.41C26.7 33.41 30.93 31.53 30.93 31.53C32.51 27.42 42.15 22.7 43.27 22.91C44.39 23.12 45.72 27 45.72 27L45.36 39.41C44.3 43.9 39 45.19 39 45.19L39.38 52C51 57.28 53.56 69.23 54 70.55C54.44 71.87 55.23 86.08 54.36 86.8C54.2182 86.91 54.0545 86.9884 53.88 87.03C56.27 86.23 74.17 79.76 80.34 67.52C80.4 67.5 75.31 63.64 75.31 62.42Z" fill="#833E81"/>
<path d="M49 87.8499L50.1 87.7499C50.6941 82.2585 52.0401 76.8748 54.1 71.7499V70.9999C54.12 70.8539 54.12 70.7059 54.1 70.5599C53.66 69.2299 51.1 57.2799 39.48 52.0399V51.7999H39C40.5158 53.195 41.883 54.7433 43.08 56.4199C46.61 60.7799 41.45 62.8699 40.71 63.0099C39.97 63.1499 35.89 63.8599 31.29 59.3299C30.1499 58.3394 29.4015 56.9739 29.18 55.4799C29 53.9999 30.19 52.2799 31 50.9999C30.5318 50.996 30.0659 51.0669 29.62 51.2099C29.34 51.3299 28.84 51.2099 28.5 51.4999C21.69 48.6799 5.00003 66.4999 13.39 78.4999C17.8729 79.3428 22.5085 78.6966 26.59 76.6599L27 86.0999C34.2267 87.6329 41.6219 88.2211 49 87.8499V87.8499Z" fill="#FF4A5A"/>
<path d="M42.5 112C80.3315 112 111 81.3315 111 43.5C111 5.6685 80.3315 -25 42.5 -25C4.6685 -25 -26 5.6685 -26 43.5C-26 81.3315 4.6685 112 42.5 112Z" fill="#F4B2C8" fill-opacity="0.7"/>
</g>
<defs>
<linearGradient id="paint0_linear" x1="43.5" y1="0" x2="43.5" y2="87" gradientUnits="userSpaceOnUse">
<stop stop-color="#ED4991"/>
<stop offset="1" stop-color="#FB4E5F"/>
</linearGradient>
<linearGradient id="paint1_linear" x1="43.5" y1="0" x2="43.5" y2="87" gradientUnits="userSpaceOnUse">
<stop stop-color="#ED4991"/>
<stop offset="1" stop-color="#FB4E5F"/>
</linearGradient>
</defs>
</svg>
