<svg width="22" height="22" viewBox="0 0 22 22" fill="none" xmlns="http://www.w3.org/2000/svg">
<path fill-rule="evenodd" clip-rule="evenodd" d="M12.6014 9.46091C10.7769 9.46091 9.24378 8.21303 8.8091 6.52419H1.83337V4.56637H8.8091C9.24378 2.87753 10.7768 1.62964 12.6014 1.62964C14.7639 1.62964 16.517 3.38273 16.517 5.54528C16.517 7.70782 14.7639 9.46091 12.6014 9.46091ZM18.4748 6.52419V4.56637H21.4116V6.52419H18.4748ZM7.70683 19.25C5.8823 19.25 4.34923 18.0021 3.91455 16.3133H1.83337V14.3555H3.91455C4.34923 12.6666 5.8823 11.4187 7.70683 11.4187C9.86938 11.4187 11.6225 13.1718 11.6225 15.3344C11.6225 17.4969 9.86938 19.25 7.70683 19.25ZM13.5803 16.3133H21.4116V14.3555H13.5803V16.3133ZM9.66465 15.3344C9.66465 16.4156 8.7881 17.2922 7.70683 17.2922C6.62556 17.2922 5.74901 16.4156 5.74901 15.3344C5.74901 14.2531 6.62556 13.3766 7.70683 13.3766C8.7881 13.3766 9.66465 14.2531 9.66465 15.3344ZM14.5592 5.54528C14.5592 6.62655 13.6827 7.5031 12.6014 7.5031C11.5201 7.5031 10.6436 6.62655 10.6436 5.54528C10.6436 4.464 11.5201 3.58746 12.6014 3.58746C13.6827 3.58746 14.5592 4.464 14.5592 5.54528Z" fill="white"/>
</svg>
