<svg width="87" height="87" viewBox="0 0 87 87" fill="none" xmlns="http://www.w3.org/2000/svg">
<circle cx="43.5" cy="43.5" r="43.5" fill="#F14A80"/>
<mask id="mask0" mask-type="alpha" maskUnits="userSpaceOnUse" x="0" y="0" width="87" height="87">
<circle cx="43.5" cy="43.5" r="43.5" fill="#F14A80"/>
</mask>
<g mask="url(#mask0)">
<path d="M32.7553 15.1209C44.7135 14.4189 49.6272 16.9044 50.3566 19.1812C51.3547 22.2738 49.8 33.0506 49.8 33.0506C49.8 33.0506 48.7827 34.2459 47.8805 34.1701C47.2279 34.1701 47.9957 43.1823 48.322 44.6053C48.4948 45.4591 69.4359 45.3453 74.7528 67.487C80.0697 89.6288 13.5992 85.3598 14.0023 71.6042C14.4054 57.8486 21.6801 48.4189 39.531 45.6299L39.6653 41.1901C39.6653 41.1901 33.1968 42.6321 33.6382 30.1857C33.6382 30.1857 31.2773 15.2158 32.7553 15.1209Z" fill="#FFB289"/>
<path d="M49.7419 50.0705C49.3196 52.1576 44.3866 58.3239 41.8146 57.7926C39.2425 57.2614 36.7089 50.3172 37.0352 48.6476C37.3615 46.9779 39.6072 45.6308 39.6072 45.6308C21.6796 48.4199 14.4049 57.8496 14.0018 71.6051C12.4999 96 80.1999 90.5 74.7139 67.488C69.4354 45.3462 48.5518 45.4601 48.2831 44.6063" fill="#C796C8"/>
<path d="M50.1067 30.5851C50.5097 27.1889 51.0472 21.3262 50.3562 19.2012C49.6652 17.0762 44.713 14.4199 32.7549 15.1219C31.3921 15.2168 33.3307 28.1565 33.5994 29.959C34.1945 21.2503 36.6705 19.6945 36.8433 20.1688C37.016 20.6431 47.4002 26.9422 47.4002 26.9422C47.4328 27.7469 47.7079 28.5235 48.1901 29.1726C48.6723 29.8217 49.3397 30.3135 50.1067 30.5851Z" fill="#833E81"/>
</g>
<circle cx="43.5" cy="43.5" r="43.5" fill="#F4B2C8" fill-opacity="0.7"/>
</svg>
