<svg width="87" height="87" viewBox="0 0 87 87" fill="none" xmlns="http://www.w3.org/2000/svg">
<path d="M43.5 87C67.5244 87 87 67.5244 87 43.5C87 19.4756 67.5244 0 43.5 0C19.4756 0 0 19.4756 0 43.5C0 67.5244 19.4756 87 43.5 87Z" fill="url(#paint0_linear)"/>
<mask id="mask0" mask-type="alpha" maskUnits="userSpaceOnUse" x="0" y="0" width="87" height="87">
<path d="M43.5 87C67.5244 87 87 67.5244 87 43.5C87 19.4756 67.5244 0 43.5 0C19.4756 0 0 19.4756 0 43.5C0 67.5244 19.4756 87 43.5 87Z" fill="url(#paint1_linear)"/>
</mask>
<g mask="url(#mask0)">
<path d="M28.8137 51.7388C18.2469 48.5782 -14.0874 89.4971 49.0384 87.8536C50.877 87.769 52.693 87.414 54.4275 86.8001C55.294 86.0837 55.3593 71.8062 55 70.4998C54.6407 69.1934 52.6657 56.3111 41 51.0856L40.5 45.4998C40.5 45.4998 44.9011 44.5089 46 39.9998L46.5 26.9998C46.5 26.9998 44.6412 22.1895 43.5 21.9998C42.3588 21.8102 31.4246 26.391 29.8607 30.4998C29.8607 30.4998 25.634 33.9332 29.8607 37.9998C29.8607 37.9998 31.5283 50.6052 31 50.4998C30.6014 50.438 30.2479 51.0503 29.8607 51.1632C29.4735 51.2761 29.1161 51.4726 28.8137 51.7388Z" fill="#FFB289"/>
<path d="M75.3073 62.4216C75.3073 61.1784 94.3275 47.1455 72.7079 43.2685C72.412 43.2685 65.5859 38.7594 70.3832 30.2259C75.1805 21.6924 52.4408 9.00794 38.2179 12.6321C35.7031 13.2852 34.2448 13.9595 34.1603 18.3211C34.1603 18.3211 8.39852 24.6422 29.0249 47.8198C29.5299 48.8823 29.6923 50.0748 29.4898 51.2332C29.9495 51.0127 30.4684 50.9461 30.9691 51.0435C31.4975 51.1489 30.8423 37.4109 30.8423 37.4109C26.7002 33.3865 30.9269 31.5323 30.9269 31.5323C32.5119 27.4235 42.1488 22.7037 43.2689 22.9144C44.3889 23.1252 45.7203 26.981 45.7203 26.981L45.3611 39.3916C44.3044 43.9006 39.021 45.1859 39.021 45.1859L39.3803 52.0339C50.9826 57.2804 53.5609 69.2274 54.0047 70.5548C54.4485 71.8822 55.2304 86.0837 54.364 86.8001C54.2175 86.9064 54.0528 86.985 53.8779 87.0319C56.266 86.2312 74.1661 79.7626 80.3371 67.5207C80.4005 67.4996 75.3073 63.6437 75.3073 62.4216Z" fill="#13A024"/>
<path d="M75.3073 62.4216C75.3073 61.1784 94.3275 47.1455 72.7079 43.2685C72.412 43.2685 65.5859 38.7594 70.3832 30.2259C75.1805 21.6924 52.4408 9.00794 38.2179 12.6321C35.7031 13.2852 34.2448 13.9595 34.1603 18.3211C34.1603 18.3211 8.39852 24.6422 29.0249 47.8198C29.5299 48.8823 29.7026 50.3415 29.5 51.4999C29.9597 51.2794 30.4993 50.9025 31 50.9999C31.5283 51.1053 30.8423 37.4109 30.8423 37.4109C26.7002 33.3865 30.9269 31.5323 30.9269 31.5323C32.5119 27.4235 42.1488 22.7037 43.2689 22.9144C44.3889 23.1252 45.7203 26.981 45.7203 26.981L45.3611 39.3916C44.3044 43.9006 39.021 45.1859 39.021 45.1859L39.3803 52.0339C50.9826 57.2804 53.5609 69.2274 54.0047 70.5548C54.4485 71.8822 55.2304 86.0837 54.364 86.8001C54.2175 86.9064 54.0528 86.985 53.8779 87.0319C56.266 86.2312 74.1661 79.7626 80.3371 67.5207C80.4005 67.4996 75.3073 63.6437 75.3073 62.4216Z" fill="#833E81"/>
<path d="M49.0385 87.8538L50.1375 87.7484C50.7439 82.2519 52.102 76.8641 54.174 71.7348C54.174 71.4399 54.174 71.2081 54.174 71.0185C54.1859 70.8712 54.1859 70.7232 54.174 70.576C53.7302 69.2485 51.1519 57.3016 39.5496 52.055V51.8233H39.0001C40.5173 53.2155 41.8843 54.762 43.0789 56.4377C46.6082 60.7993 41.4516 62.8852 40.7119 63.0327C39.9722 63.1802 35.8935 63.8756 31.2864 59.3454C30.1458 58.3557 29.3976 56.9921 29.1767 55.5007C28.9558 54.0094 30.195 52.2762 31 51C30.8336 51.0335 30 51 29.6171 51.2122C29.3367 51.3309 28.8437 51.1767 28.5 51.5C21.6862 48.6767 5.00001 66.5 13.3863 78.4774C17.8718 79.3192 22.5103 78.6754 26.5947 76.6443L26.954 86.1049C34.208 87.6424 41.6321 88.2303 49.0385 87.8538Z" fill="#FF4A5A"/>
</g>
<defs>
<linearGradient id="paint0_linear" x1="43.5" y1="0" x2="43.5" y2="87" gradientUnits="userSpaceOnUse">
<stop stop-color="#ED4991"/>
<stop offset="1" stop-color="#FB4E5F"/>
</linearGradient>
<linearGradient id="paint1_linear" x1="43.5" y1="0" x2="43.5" y2="87" gradientUnits="userSpaceOnUse">
<stop stop-color="#ED4991"/>
<stop offset="1" stop-color="#FB4E5F"/>
</linearGradient>
</defs>
</svg>
