<svg width="87" height="87" viewBox="0 0 87 87" fill="none" xmlns="http://www.w3.org/2000/svg">
<circle cx="43.5" cy="43.5" r="43.5" fill="#F14A80"/>
<mask id="mask0" mask-type="alpha" maskUnits="userSpaceOnUse" x="0" y="0" width="87" height="87">
<circle cx="43.5" cy="43.5" r="43.5" fill="#F14A80"/>
</mask>
<g mask="url(#mask0)">
<mask id="mask1" mask-type="alpha" maskUnits="userSpaceOnUse" x="44" y="3" width="47" height="90">
<rect x="44" y="3" width="47" height="90" fill="#C4C4C4"/>
</mask>
<g mask="url(#mask1)">
<path d="M36.8137 55.739C26.2469 52.5784 -6.08741 93.4973 57.0384 91.8538C58.877 91.7692 60.693 91.4142 62.4275 90.8003C63.294 90.0839 63.3593 75.8064 63 74.5C62.6407 73.1936 60.6657 60.3113 49 55.0858L48.5 49.5C48.5 49.5 52.9011 48.5091 54 44L54.5 31C54.5 31 52.6412 26.1897 51.5 26C50.3588 25.8104 39.4246 30.3912 37.8607 34.5C37.8607 34.5 33.634 37.9334 37.8607 42C37.8607 42 39.5283 54.6054 39 54.5C38.6014 54.4382 38.2479 55.0505 37.8607 55.1634C37.4735 55.2763 37.1161 55.4728 36.8137 55.739Z" fill="#FFB289"/>
<path d="M83.3073 66.4217C83.3073 65.1785 102.327 51.1456 80.7079 47.2686C80.412 47.2686 73.5859 42.7595 78.3832 34.226C83.1805 25.6925 60.4408 13.008 46.2179 16.6322C43.7031 17.2853 42.2448 17.9596 42.1603 22.3212C42.1603 22.3212 16.3985 28.6423 37.0249 51.8199C37.5299 52.8824 37.6923 54.0749 37.4898 55.2333C37.9495 55.0128 38.4684 54.9462 38.9691 55.0436C39.4975 55.149 38.8423 41.411 38.8423 41.411C34.7002 37.3866 38.9269 35.5324 38.9269 35.5324C40.5119 31.4236 50.1488 26.7038 51.2689 26.9145C52.3889 27.1253 53.7203 30.9811 53.7203 30.9811L53.3611 43.3917C52.3044 47.9007 47.021 49.186 47.021 49.186L47.3803 56.034C58.9826 61.2805 61.5609 73.2275 62.0047 74.5549C62.4485 75.8823 63.2304 90.0838 62.364 90.8002C62.2175 90.9065 62.0528 90.9851 61.8779 91.032C64.266 90.2313 82.1661 83.7627 88.3371 71.5208C88.4005 71.4997 83.3073 67.6438 83.3073 66.4217Z" fill="#13A024"/>
<path d="M83.3073 66.4217C83.3073 65.1785 102.327 51.1456 80.7079 47.2686C80.412 47.2686 73.5859 42.7595 78.3832 34.226C83.1805 25.6925 60.4408 13.008 46.2179 16.6322C43.7031 17.2853 42.2448 17.9596 42.1603 22.3212C42.1603 22.3212 16.3985 28.6423 37.0249 51.8199C37.5299 52.8824 37.7026 54.3416 37.5 55.5C37.9597 55.2795 38.4993 54.9026 39 55C39.5283 55.1054 38.8423 41.411 38.8423 41.411C34.7002 37.3866 38.9269 35.5324 38.9269 35.5324C40.5119 31.4236 50.1488 26.7038 51.2689 26.9145C52.3889 27.1253 53.7203 30.9811 53.7203 30.9811L53.3611 43.3917C52.3044 47.9007 47.021 49.186 47.021 49.186L47.3803 56.034C58.9826 61.2805 61.5609 73.2275 62.0047 74.5549C62.4485 75.8823 63.2304 90.0838 62.364 90.8002C62.2175 90.9065 62.0528 90.9851 61.8779 91.032C64.266 90.2313 82.1661 83.7627 88.3371 71.5208C88.4005 71.4997 83.3073 67.6438 83.3073 66.4217Z" fill="#833E81"/>
<path d="M57.0385 91.8538L58.1375 91.7484C58.7439 86.2519 60.102 80.8641 62.174 75.7348C62.174 75.4399 62.174 75.2081 62.174 75.0185C62.1859 74.8712 62.1859 74.7232 62.174 74.576C61.7302 73.2485 59.1519 61.3016 47.5496 56.055V55.8233H47.0001C48.5173 57.2155 49.8843 58.762 51.0789 60.4377C54.6082 64.7993 49.4516 66.8852 48.7119 67.0327C47.9722 67.1802 43.8935 67.8756 39.2864 63.3454C38.1458 62.3557 37.3976 60.9921 37.1767 59.5007C36.9558 58.0094 38.195 56.2762 39 55C38.8336 55.0335 38 55 37.6171 55.2122C37.3367 55.3309 36.8437 55.1767 36.5 55.5C29.6862 52.6767 13 70.5 21.3863 82.4774C25.8718 83.3192 30.5103 82.6754 34.5947 80.6443L34.954 90.1049C42.208 91.6424 49.6321 92.2303 57.0385 91.8538Z" fill="#FF4A5A"/>
</g>
<mask id="mask2" mask-type="alpha" maskUnits="userSpaceOnUse" x="-7" y="9" width="47" height="90">
<rect x="-7" y="9" width="47" height="90" fill="#C4C4C4"/>
</mask>
<g mask="url(#mask2)">
<path d="M25.7553 19.1209C37.7135 18.4189 42.6272 20.9044 43.3566 23.1812C44.3547 26.2738 42.8 37.0506 42.8 37.0506C42.8 37.0506 41.7827 38.2459 40.8805 38.1701C40.2279 38.1701 40.9957 47.1823 41.322 48.6053C41.4948 49.4591 62.4359 49.3453 67.7528 71.487C73.0697 93.6288 6.59923 89.3598 7.00231 75.6042C7.4054 61.8486 14.6801 52.4189 32.531 49.6299L32.6653 45.1901C32.6653 45.1901 26.1968 46.6321 26.6382 34.1857C26.6382 34.1857 24.2773 19.2158 25.7553 19.1209Z" fill="#FFB289"/>
<path d="M42.7419 54.0705C42.3196 56.1576 37.3866 62.3239 34.8146 61.7926C32.2425 61.2614 29.7089 54.3172 30.0352 52.6476C30.3615 50.9779 32.6072 49.6308 32.6072 49.6308C14.6796 52.4199 7.40489 61.8496 7.0018 75.6051C5.49993 100 73.1999 94.5 67.7139 71.488C62.4354 49.3462 41.5518 49.4601 41.2831 48.6063" fill="#C796C8"/>
<path d="M43.1067 34.5851C43.5097 31.1889 44.0472 25.3262 43.3562 23.2012C42.6652 21.0762 37.713 18.4199 25.7549 19.1219C24.3921 19.2168 26.3307 32.1565 26.5994 33.959C27.1945 25.2503 29.6705 23.6945 29.8433 24.1688C30.016 24.6431 40.4002 30.9422 40.4002 30.9422C40.4328 31.7469 40.7079 32.5235 41.1901 33.1726C41.6723 33.8217 42.3397 34.3135 43.1067 34.5851Z" fill="#833E81"/>
</g>
<circle cx="43.5" cy="43.5" r="43.5" fill="#F4B2C8" fill-opacity="0.7"/>
</g>
</svg>
