<svg width="27" height="23" viewBox="0 0 27 23" fill="none" xmlns="http://www.w3.org/2000/svg">
<g clip-path="url(#clip0)">
<path d="M13.0799 8.96611C13.5301 8.97514 13.9639 9.13817 14.3099 9.42837C14.8383 9.94297 16.3715 12.1409 16.3715 12.1409C16.3715 12.1409 19.0481 10.6843 20.564 10.6843H20.7892C22.3051 10.8413 23.4485 13.0655 23.8383 13.6934C24.13 14.422 24.2998 15.1942 24.3407 15.9786C24.6938 16.1488 25.0023 16.4 25.2415 16.7121C25.4807 17.0241 25.6439 17.3883 25.718 17.7754C25.8912 19.7465 22.3137 21.6567 21.3262 21.6828C20.3474 21.6828 19.3946 19.5634 19.3946 19.5634C17.7467 19.4518 16.209 18.6902 15.1155 17.4439C11.486 16.5717 13.9114 15.0366 15.1588 15.0366C15.2891 15.0346 15.4186 15.0583 15.5399 15.1064C15.9644 15.1064 13.2271 13.0916 12.4302 10.7454C11.9798 9.41093 12.4735 9.00099 13.0799 9.00099V8.96611ZM13.0799 7.69269C12.7422 7.68406 12.4077 7.75909 12.1056 7.91117C11.8035 8.06326 11.5431 8.28774 11.3474 8.56489C11.1155 8.95691 10.9811 9.39949 10.9554 9.85503C10.9298 10.3106 11.0138 10.7656 11.2002 11.1815C11.6463 12.3575 12.314 13.4355 13.1665 14.3563C12.8369 14.5289 12.5518 14.7763 12.3338 15.0791C12.1158 15.3819 11.9709 15.7317 11.9105 16.1007C11.8152 16.9729 12.1877 18.037 14.4225 18.6737C15.5337 19.8036 16.9594 20.567 18.511 20.863C19.0394 21.8224 19.9836 23.0784 21.2829 23.0784H21.3436C23.1051 22.7557 24.7106 21.8539 25.9085 20.5141C26.2717 20.1556 26.5559 19.7242 26.7424 19.2478C26.929 18.7714 27.0138 18.2608 26.9913 17.7492C26.9913 17.7492 26.9913 17.6881 26.9913 17.662C26.8236 16.7155 26.3108 15.8663 25.5534 15.2809C25.487 14.5176 25.2753 13.7743 24.9297 13.0916L24.7998 12.8736C24.1934 11.8357 22.9201 9.68131 20.9191 9.47198H20.5813C19.2654 9.5581 17.9779 9.89554 16.7873 10.4663C16.3043 9.77272 15.7807 9.10867 15.2194 8.47767C14.6325 7.9391 13.8736 7.62973 13.0799 7.60547V7.69269Z" fill="white"/>
<path d="M15.5919 18.8918L12.3609 21.6829L4.12313 14.4436C2.52783 13.0773 1.38787 11.2505 0.857493 9.21038C0.643563 8.44204 0.584657 7.63834 0.68425 6.84671C0.996088 3.48873 3.46481 0.654065 6.86038 0.654065C8.04234 0.652484 9.19822 1.0038 10.1819 1.66361C11.1656 2.32341 11.9329 3.26208 12.3868 4.36093C12.87 3.25645 13.6623 2.31766 14.6668 1.65934C15.6714 1.00101 16.8447 0.651683 18.0432 0.654065C21.4561 0.654065 23.9162 3.48873 24.254 6.84671C24.3417 7.63148 24.274 8.42596 24.0548 9.18421C23.8853 9.87072 23.6443 10.5373 23.3358 11.1728" stroke="white" stroke-width="1.5" stroke-linecap="round" stroke-linejoin="round"/>
</g>
<defs>
<clipPath id="clip0">
<rect width="27" height="23" fill="white"/>
</clipPath>
</defs>
</svg>
