<svg width="236" height="109" viewBox="0 0 236 109" fill="none" xmlns="http://www.w3.org/2000/svg">
<g filter="url(#filter0_d)">
<path d="M227.516 7.25871e-08H206.587C206.113 -9.55471e-05 205.643 0.0942804 205.205 0.277733C204.766 0.461185 204.368 0.730117 204.032 1.06915L195.529 9.65774C194.824 10.3705 194.824 11.5258 195.529 12.238L204.032 20.8271C204.71 21.5114 205.629 21.8963 206.587 21.8963H227.516C229.512 21.8963 231.129 20.2626 231.129 18.2469V3.64938C231.129 1.63367 229.512 7.25871e-08 227.516 7.25871e-08ZM222.735 14.4869C223.088 14.8433 223.088 15.4209 222.735 15.7773L221.458 17.0671C221.105 17.4235 220.534 17.4235 220.181 17.0671L216.677 13.5284L213.174 17.0671C212.821 17.4235 212.249 17.4235 211.897 17.0671L210.62 15.7773C210.267 15.4209 210.267 14.8433 210.62 14.4869L214.123 10.9481L210.62 7.40938C210.267 7.05299 210.267 6.47537 210.62 6.11898L211.897 4.82915C212.249 4.47277 212.821 4.47277 213.174 4.82915L216.677 8.36791L220.181 4.82915C220.534 4.47277 221.105 4.47277 221.458 4.82915L222.735 6.11898C223.088 6.47537 223.088 7.05299 222.735 7.40938L219.232 10.9481L222.735 14.4869Z" fill="white"/>
</g>
<g filter="url(#filter1_d)">
<path d="M4 37C4 34.2386 6.23858 32 9 32H73V101H9C6.23858 101 4 98.7614 4 96V37Z" fill="white"/>
<path d="M42.2291 90V79.43H18.2891L16.5391 71.8L43.4191 40.65H52.5191V70.68H59.0991V79.43H52.5191V90H42.2291ZM29.2091 70.68H42.2291V55.42L29.2091 70.68Z" fill="url(#paint0_linear)"/>
<path d="M231 96C231 98.7614 228.761 101 226 101L162 101L162 32L226 32C228.761 32 231 34.2386 231 37L231 96Z" fill="white"/>
<path d="M200.229 90V79.43H176.289L174.539 71.8L201.419 40.65H210.519V70.68H217.099V79.43H210.519V90H200.229ZM187.209 70.68H200.229V55.42L187.209 70.68Z" fill="url(#paint1_linear)"/>
<path d="M83 32H152V101H83V32Z" fill="white"/>
<path d="M133.664 83.63C129.604 88.4367 124.354 90.84 117.914 90.84C111.474 90.84 106.247 88.4367 102.234 83.63C98.2203 78.8233 96.2136 72.78 96.2136 65.5C96.2136 58.2667 98.2436 52.2467 102.304 47.44C106.364 42.5867 111.614 40.16 118.054 40.16C124.447 40.16 129.65 42.5633 133.664 47.37C137.724 52.1767 139.754 58.22 139.754 65.5C139.754 72.7333 137.724 78.7767 133.664 83.63ZM110.214 76.7C112.22 79.64 114.834 81.11 118.054 81.11C121.274 81.11 123.84 79.6633 125.754 76.77C127.714 73.83 128.694 70.0733 128.694 65.5C128.694 61.02 127.69 57.31 125.684 54.37C123.677 51.3833 121.087 49.89 117.914 49.89C114.74 49.89 112.174 51.36 110.214 54.3C108.254 57.1933 107.274 60.9267 107.274 65.5C107.274 70.0267 108.254 73.76 110.214 76.7Z" fill="url(#paint2_linear)"/>
</g>
<defs>
<filter id="filter0_d" x="191" y="0" width="44.1288" height="29.8963" filterUnits="userSpaceOnUse" color-interpolation-filters="sRGB">
<feFlood flood-opacity="0" result="BackgroundImageFix"/>
<feColorMatrix in="SourceAlpha" type="matrix" values="0 0 0 0 0 0 0 0 0 0 0 0 0 0 0 0 0 0 127 0"/>
<feOffset dy="4"/>
<feGaussianBlur stdDeviation="2"/>
<feColorMatrix type="matrix" values="0 0 0 0 0 0 0 0 0 0 0 0 0 0 0 0 0 0 0.05 0"/>
<feBlend mode="normal" in2="BackgroundImageFix" result="effect1_dropShadow"/>
<feBlend mode="normal" in="SourceGraphic" in2="effect1_dropShadow" result="shape"/>
</filter>
<filter id="filter1_d" x="0" y="32" width="235" height="77" filterUnits="userSpaceOnUse" color-interpolation-filters="sRGB">
<feFlood flood-opacity="0" result="BackgroundImageFix"/>
<feColorMatrix in="SourceAlpha" type="matrix" values="0 0 0 0 0 0 0 0 0 0 0 0 0 0 0 0 0 0 127 0"/>
<feOffset dy="4"/>
<feGaussianBlur stdDeviation="2"/>
<feColorMatrix type="matrix" values="0 0 0 0 0 0 0 0 0 0 0 0 0 0 0 0 0 0 0.02 0"/>
<feBlend mode="normal" in2="BackgroundImageFix" result="effect1_dropShadow"/>
<feBlend mode="normal" in="SourceGraphic" in2="effect1_dropShadow" result="shape"/>
</filter>
<linearGradient id="paint0_linear" x1="38.5" y1="35" x2="38.5" y2="98" gradientUnits="userSpaceOnUse">
<stop stop-color="#ED4991"/>
<stop offset="1" stop-color="#FB4E5F"/>
</linearGradient>
<linearGradient id="paint1_linear" x1="196.5" y1="35" x2="196.5" y2="98" gradientUnits="userSpaceOnUse">
<stop stop-color="#ED4991"/>
<stop offset="1" stop-color="#FB4E5F"/>
</linearGradient>
<linearGradient id="paint2_linear" x1="118" y1="98" x2="118" y2="31" gradientUnits="userSpaceOnUse">
<stop stop-color="#ED4991"/>
<stop offset="1" stop-color="#FB4E5F"/>
</linearGradient>
</defs>
</svg>
