<svg xmlns="http://www.w3.org/2000/svg" viewBox="0 0 23 23"><defs><style>.cls-1{fill:#fff;}.cls-2{fill:#f84d68;}</style></defs><title>Asset 1</title><g id="Layer_2" data-name="Layer 2"><g id="Layer_1-2" data-name="Layer 1"><circle class="cls-1" cx="11.5" cy="11.5" r="11.5"/><path class="cls-2" d="M9.26,17V15.5H8.14V14.14H9.26V13.05H8.14V11.32H9.26V7h3.19a4.2,4.2,0,0,1,2.82.79,2.73,2.73,0,0,1,.89,2.15,3.35,3.35,0,0,1-.36,1.53,2.63,2.63,0,0,1-1.22,1.15,5.07,5.07,0,0,1-2.3.43h-.91v1.09h2.16V15.5H11.37V17Zm2.11-5.68h.7A2.85,2.85,0,0,0,13.49,11,1.08,1.08,0,0,0,14,10c0-.85-.56-1.27-1.68-1.27h-1Z"/></g></g></svg>