<svg width="24" height="24" viewBox="0 0 24 24" fill="none" xmlns="http://www.w3.org/2000/svg">
<circle cx="12" cy="12" r="12" fill="white"/>
<path d="M12 23C18.0751 23 23 18.0751 23 12C23 5.92487 18.0751 1 12 1C5.92487 1 1 5.92487 1 12C1 18.0751 5.92487 23 12 23Z" fill="white"/>
<path d="M11.9641 9.76652C12.4484 8.72674 13.5549 8.00022 14.8418 8.00022C16.5753 8.00022 17.8238 9.34348 17.9808 10.9443C17.9808 10.9443 18.0655 11.3417 17.879 12.0572C17.6251 13.0315 17.0282 13.8972 16.2235 14.5578L11.9641 18L7.77652 14.5576C6.97178 13.8972 6.37489 13.0313 6.12096 12.057C5.93448 11.3415 6.0192 10.9441 6.0192 10.9441C6.17616 9.34326 7.42467 8 9.15822 8C10.4454 8 11.4798 8.72674 11.9641 9.76652Z" fill="#F84D68"/>
</svg>
