<svg width="11" height="11" viewBox="0 0 11 11" fill="none" xmlns="http://www.w3.org/2000/svg">
<path d="M4.95544 5.78413L0.225765 1.25827C-0.0752554 0.970375 -0.0752554 0.503596 0.225765 0.215837C0.526517 -0.0719456 1.01431 -0.0719456 1.31504 0.215837L5.50008 4.22052L9.68498 0.215953C9.98585 -0.0718292 10.4736 -0.0718292 10.7743 0.215953C11.0752 0.503736 11.0752 0.970491 10.7743 1.25839L6.04459 5.78424C5.89414 5.92814 5.69717 6 5.5001 6C5.30294 6 5.10582 5.928 4.95544 5.78413Z" fill="#FD5485"/>
<path d="M4.95544 5.21587L0.225765 9.74173C-0.0752554 10.0296 -0.0752554 10.4964 0.225765 10.7842C0.526517 11.0719 1.01431 11.0719 1.31504 10.7842L5.50008 6.77948L9.68498 10.784C9.98585 11.0718 10.4736 11.0718 10.7743 10.784C11.0752 10.4963 11.0752 10.0295 10.7743 9.74161L6.04459 5.21576C5.89414 5.07186 5.69717 5 5.5001 5C5.30294 5 5.10582 5.072 4.95544 5.21587Z" fill="#FD5485"/>
</svg>
