<svg width="18" height="10" viewBox="0 0 18 10" fill="none" xmlns="http://www.w3.org/2000/svg">
<path d="M8.83307 9.91008H9.91022C9.91022 9.91008 10.2693 9.91008 10.359 9.73517C10.4703 9.61448 10.5341 9.45968 10.5386 9.29789C10.5386 9.29789 10.5386 7.89861 11.1669 7.7237C11.7952 7.54879 12.6929 9.12298 13.5905 9.64771C13.9244 9.89521 14.3382 10.0194 14.7574 9.99754H17.181C17.181 9.99754 18.4376 9.91008 17.8093 8.94807C17.3102 8.19858 16.7061 7.52255 16.0141 6.9366C14.4881 5.53731 14.6676 5.79968 16.5526 3.43839C17.6298 2.0391 18.0786 1.16455 17.9888 0.727271C17.8991 0.37745 17.0912 0.464905 17.0912 0.464905H14.3983C14.2745 0.469278 14.1515 0.499013 14.0393 0.552361C13.9253 0.612705 13.8319 0.703658 13.77 0.814727C13.4917 1.50825 13.1623 2.1799 12.7826 2.8262C11.6157 4.83767 11.0771 4.92513 10.8976 4.83767C10.4488 4.57531 10.5386 3.70075 10.5386 3.08857C10.5386 1.16455 10.8078 0.37745 9.91022 0.115084C9.4991 0.0223813 9.07543 -0.00647895 8.65354 0.0276286C7.89505 -0.0510812 7.12848 0.0389978 6.40948 0.289995C6.1402 0.464905 5.87091 0.727271 6.05043 0.814727C6.35473 0.832218 6.64197 0.956404 6.8583 1.16455C7.0441 1.54673 7.13656 1.96651 7.12758 2.38892C7.12758 2.38892 7.30711 4.66276 6.76853 4.92513C6.40948 5.10004 5.87091 4.75022 4.79376 2.91365C4.25519 1.95165 3.80637 0.989637 3.80637 0.989637C3.7588 0.895186 3.69776 0.806856 3.62685 0.727271C3.48143 0.660805 3.33153 0.60221 3.17804 0.552361H0.574928C0.381041 0.551486 0.191643 0.613579 0.0363536 0.727271C-0.0121181 0.868949 -0.0121181 1.02287 0.0363536 1.16455C0.0363536 1.16455 2.01113 5.71222 4.34495 8.07352C5.55943 9.20169 7.15631 9.85586 8.83307 9.91008Z" fill="white"/>
</svg>
