<svg width="150" height="150" viewBox="0 0 150 150" fill="none" xmlns="http://www.w3.org/2000/svg">
<rect width="150" height="150" rx="5" fill="white"/>
<mask id="mask0" mask-type="alpha" maskUnits="userSpaceOnUse" x="0" y="0" width="150" height="150">
<rect width="150" height="150" rx="5" fill="white"/>
</mask>
<g mask="url(#mask0)">
<rect opacity="0.2" x="-24" y="32" width="61" height="61" rx="3" fill="#CDCCCD"/>
<rect opacity="0.5" x="44" y="32" width="61" height="61" rx="3" fill="#CDCCCD"/>
<path d="M87 57.25V70.75C87 71.9922 85.9922 73 84.75 73H65.25C64.0078 73 63 71.9922 63 70.75V57.25C63 56.0078 64.0078 55 65.25 55H69.375L69.9516 53.4578C70.2797 52.5812 71.1187 52 72.0562 52H77.9391C78.8766 52 79.7156 52.5812 80.0438 53.4578L80.625 55H84.75C85.9922 55 87 56.0078 87 57.25ZM80.625 64C80.625 60.8969 78.1031 58.375 75 58.375C71.8969 58.375 69.375 60.8969 69.375 64C69.375 67.1031 71.8969 69.625 75 69.625C78.1031 69.625 80.625 67.1031 80.625 64ZM79.125 64C79.125 66.2734 77.2734 68.125 75 68.125C72.7266 68.125 70.875 66.2734 70.875 64C70.875 61.7266 72.7266 59.875 75 59.875C77.2734 59.875 79.125 61.7266 79.125 64Z" fill="white"/>
<rect opacity="0.2" x="112" y="32" width="61" height="61" rx="3" fill="#CDCCCD"/>
<rect opacity="0.5" x="44" y="98" width="61" height="16" rx="3" fill="#CDCCCD"/>
<rect x="48" y="103" width="32" height="7" rx="3.5" fill="white"/>
<rect x="93" y="103" width="9" height="7" rx="3.5" fill="white"/>
</g>
<path d="M131.286 125.875H130.429V123.344C130.429 120.398 127.993 118 125 118C122.007 118 119.571 120.398 119.571 123.344V125.875H118.714C117.768 125.875 117 126.631 117 127.562V134.312C117 135.244 117.768 136 118.714 136H131.286C132.232 136 133 135.244 133 134.312V127.562C133 126.631 132.232 125.875 131.286 125.875ZM127.571 125.875H122.429V123.344C122.429 121.948 123.582 120.812 125 120.812C126.418 120.812 127.571 121.948 127.571 123.344V125.875Z" fill="url(#paint0_linear)"/>
<defs>
<linearGradient id="paint0_linear" x1="125" y1="118" x2="125" y2="136" gradientUnits="userSpaceOnUse">
<stop stop-color="#ED4991"/>
<stop offset="1" stop-color="#FB4E5F"/>
</linearGradient>
</defs>
</svg>
