<svg width="67" height="67" viewBox="0 0 67 67" fill="none" xmlns="http://www.w3.org/2000/svg">
<circle cx="33.5" cy="33.5" r="33.5" fill="url(#paint0_linear)"/>
<path d="M33.9354 27.7696C35.2295 24.9622 38.1857 23.0006 41.6241 23.0006C46.256 23.0006 49.5918 26.6274 50.0112 30.9497C50.0112 30.9497 50.2376 32.0227 49.7393 33.9544C49.0609 36.5851 47.466 38.9224 45.3159 40.7061L33.9354 50L22.7466 40.7055C20.5965 38.9224 19.0017 36.5845 18.3232 33.9538C17.8249 32.0221 18.0513 30.9492 18.0513 30.9492C18.4707 26.6268 21.8065 23 26.4384 23C29.8775 23 32.6413 24.9622 33.9354 27.7696Z" fill="white"/>
<defs>
<linearGradient id="paint0_linear" x1="33.5" y1="0" x2="33.5" y2="67" gradientUnits="userSpaceOnUse">
<stop stop-color="#ED4991"/>
<stop offset="1" stop-color="#FB4E5F"/>
</linearGradient>
</defs>
</svg>
