<svg width="173" height="142" viewBox="0 0 173 142" fill="none" xmlns="http://www.w3.org/2000/svg">
<mask id="mask0" mask-type="alpha" maskUnits="userSpaceOnUse" x="0" y="0" width="173" height="142">
<path d="M127.097 0C152.001 0 169.965 19.0687 172.225 41.7988C172.225 41.7988 173.443 47.4433 170.762 57.6003C167.112 71.4148 158.509 83.7031 146.95 93.0988L86.758 141.94L25.547 93.0988C13.9848 83.7304 5.39316 71.4343 1.73557 57.6042C-0.934436 47.455 0.27175 41.8106 0.27175 41.8106C2.53189 19.0843 20.4802 0.0078087 45.4003 0.0078087C63.903 0.0078087 79.8098 10.3209 86.7541 25.0801C93.718 10.317 108.59 0 127.097 0Z" fill="white"/>
</mask>
<g mask="url(#mask0)">
<path d="M86.7582 25.0606C93.7182 10.3014 108.591 -0.015625 127.097 -0.015625C152.002 -0.015625 169.966 19.0531 172.226 41.7871C172.226 41.7871 173.444 47.4316 170.762 57.5886C167.112 71.4148 158.509 83.7031 146.95 93.1106L86.7582 141.94L25.5472 93.0988C24.2981 92.0917 23.0854 91.0508 21.9091 89.976C20.1486 88.3483 -25.8816 53.4625 18.0056 23.2259C61.8928 -7.01072 86.7582 25.0606 86.7582 25.0606Z" fill="url(#paint0_linear)"/>
<path d="M0.256079 41.7909C2.51622 19.0529 20.4646 -0.0118408 45.3846 -0.0118408C63.8873 -0.0118408 79.7941 10.3012 86.7619 25.0604C86.7619 25.0604 36.8945 122.258 -2.69498 59.6573C-36.9796 5.41795 14.8943 108.666 -1.84401 57.928C-12.1142 26.8092 0.256079 41.7909 0.256079 41.7909Z" fill="#FF6378"/>
</g>
<defs>
<linearGradient id="paint0_linear" x1="25.555" y1="6.75701" x2="129.779" y2="115.665" gradientUnits="userSpaceOnUse">
<stop stop-color="#ED4990"/>
<stop offset="1" stop-color="#FB4E5F"/>
</linearGradient>
</defs>
</svg>
