<svg width="11" height="11" viewBox="0 0 11 11" fill="none" xmlns="http://www.w3.org/2000/svg">
<g clip-path="url(#clip0)">
<path d="M6.42686 5.49237L10.5858 1.33338C10.8442 1.07521 10.8442 0.656314 10.5858 0.398141C10.3275 0.139747 9.90899 0.139747 9.6506 0.398141L5.49161 4.55713L1.33241 0.398141C1.07401 0.139747 0.655558 0.139747 0.397164 0.398141C0.138771 0.656314 0.138771 1.07521 0.397164 1.33338L4.55637 5.49237L0.397164 9.65136C0.138771 9.90953 0.138771 10.3284 0.397164 10.5866C0.526361 10.7156 0.695684 10.7802 0.864786 10.7802C1.03389 10.7802 1.20321 10.7156 1.33241 10.5864L5.49161 6.42739L9.6506 10.5864C9.7798 10.7156 9.94912 10.7802 10.1182 10.7802C10.2873 10.7802 10.4566 10.7156 10.5858 10.5864C10.8442 10.3282 10.8442 9.90931 10.5858 9.65114L6.42686 5.49237Z" fill="#575757"/>
</g>
<defs>
<clipPath id="clip0">
<rect width="10.5763" height="10.5763" fill="white" transform="translate(0.203369 0.203369)"/>
</clipPath>
</defs>
</svg>
