<svg width="22" height="22" viewBox="0 0 22 22" fill="none" xmlns="http://www.w3.org/2000/svg">
<circle cx="11" cy="11" r="11" fill="#F84D68"/>
<path d="M8.26 16V14.502H7.14V13.144H8.26V12.052H7.14V10.316H8.26V6.004H11.452C12.74 6.004 13.678 6.26533 14.266 6.788C14.8633 7.31067 15.162 8.02933 15.162 8.944C15.162 9.48533 15.0407 9.994 14.798 10.47C14.5553 10.946 14.1493 11.3287 13.58 11.618C13.02 11.9073 12.2547 12.052 11.284 12.052H10.374V13.144H12.53V14.502H10.374V16H8.26ZM10.374 10.316H11.074C11.6713 10.316 12.1427 10.2133 12.488 10.008C12.8427 9.80267 13.02 9.47133 13.02 9.014C13.02 8.16467 12.46 7.74 11.34 7.74H10.374V10.316Z" fill="white"/>
</svg>
