<svg width="27" height="27" viewBox="0 0 27 27" fill="none" xmlns="http://www.w3.org/2000/svg">
<g clip-path="url(#clip0)">
<path d="M10.6314 18.2856V16.5145L5.69753 17.9061C5.69753 17.9061 6.05595 15.7976 8.62836 15.0596C9.40848 14.8488 10.0832 14.8488 10.6314 14.9542V7.65875H13.0983C12.8242 6.83644 12.5712 6.18282 12.3603 5.74002C12.0019 5.00203 11.6224 5.48701 10.8 6.20391C10.2096 6.68884 8.71262 7.76422 6.45656 8.35456C4.20045 8.96604 2.38719 8.79735 1.6281 8.67085C0.552778 8.48106 -0.0165238 8.24914 0.0467557 9.07146C0.088942 9.78836 0.25758 10.9059 0.658243 12.4029C1.50165 15.6078 4.30592 21.7857 9.61936 20.3519C11.011 19.9724 12.002 19.2344 12.6767 18.2856H10.6314ZM2.68238 12.445L6.45656 11.454C6.45656 11.454 6.35115 12.9089 4.93844 13.2884C3.52579 13.6469 2.68238 12.445 2.68238 12.445Z" fill="#D0D0D0"/>
<path d="M24.9057 7.80644C23.8936 7.97514 21.49 8.20705 18.517 7.40583C15.5441 6.60461 13.562 5.213 12.7819 4.55938C11.6644 3.63166 11.1795 2.99908 10.7156 3.96899C10.2939 4.83349 9.74568 6.2251 9.21857 8.18596C8.07996 12.424 7.23656 21.364 14.2579 23.2406C21.3002 25.1171 25.0322 16.9573 26.1708 12.7192C26.6979 10.7583 26.9299 9.28238 26.9931 8.33356C27.0775 7.23714 26.3395 7.55343 24.9057 7.80644ZM10.7788 11.3276C10.7788 11.3276 11.8963 9.57757 13.794 10.1258C15.6916 10.674 15.8392 12.7614 15.8392 12.7614L10.7788 11.3276ZM15.3754 19.0236C12.065 18.0537 11.559 15.4181 11.559 15.4181L20.4357 17.885C20.4357 17.9061 18.6435 19.9724 15.3754 19.0236ZM18.5802 13.6469C18.5802 13.6469 19.6556 11.918 21.4689 12.4451C23.2822 12.9933 23.4298 15.0807 23.4298 15.0807L18.5802 13.6469Z" fill="white"/>
<path d="M15.6288 19.087L15.3758 19.0237C12.0655 18.0538 11.5595 15.4181 11.5595 15.4181L16.2403 16.7254L18.644 7.42693C18.6018 7.40583 18.5597 7.40583 18.5175 7.40583C15.5445 6.60462 13.5625 5.213 12.7824 4.55938C11.6649 3.63166 11.1799 2.99908 10.7161 3.96899C10.2944 4.83349 9.74615 6.2251 9.21903 8.18596C8.12261 12.2553 7.3003 20.6471 13.4782 22.9876L14.5324 23.3039L15.6288 19.087ZM10.7793 11.3277C10.7793 11.3277 11.8968 9.57763 13.7944 10.1258C15.6921 10.674 15.8397 12.7615 15.8397 12.7615L10.7793 11.3277Z" fill="#EDEDED"/>
<path d="M8.88156 17.0204L5.69772 17.927C5.69772 17.927 6.03511 15.945 8.37548 15.1649L6.56217 8.35449C6.51998 8.37559 6.47785 8.37559 6.41457 8.39668C4.15846 9.00817 2.34519 8.83947 1.58611 8.71297C0.510785 8.52318 -0.058516 8.29127 0.00476352 9.11358C0.0469499 9.83048 0.215588 10.948 0.616251 12.445C1.50184 15.6078 4.30611 21.7856 9.6195 20.3518L9.74601 20.3097C9.74606 20.3097 8.88156 17.0204 8.88156 17.0204ZM2.68258 12.445L6.45676 11.454C6.45676 11.454 6.35134 12.9088 4.93864 13.2884C3.52598 13.6468 2.68258 12.445 2.68258 12.445Z" fill="white"/>
</g>
<defs>
<clipPath id="clip0">
<rect width="27" height="27" fill="white"/>
</clipPath>
</defs>
</svg>
