<svg width="54" height="49" viewBox="0 0 54 49" fill="none" xmlns="http://www.w3.org/2000/svg">
<g opacity="0.6" filter="url(#filter0_d)">
<path d="M26.8981 14.1229C28.2704 11.1075 31.4052 9.00063 35.0515 9.00063C39.9632 9.00063 43.5006 12.8961 43.9454 17.5386C43.9454 17.5386 44.1854 18.691 43.657 20.7658C42.9376 23.5914 41.2464 26.1018 38.9663 28.0177L26.8981 38L15.0332 28.0171C12.7531 26.1018 11.0619 23.5908 10.3425 20.7652C9.81411 18.6904 10.0542 17.538 10.0542 17.538C10.4989 12.8955 14.0363 9 18.9481 9C22.595 9 25.5258 11.1075 26.8981 14.1229Z" fill="white"/>
</g>
<defs>
<filter id="filter0_d" x="-0.000244141" y="0" width="54" height="49" filterUnits="userSpaceOnUse" color-interpolation-filters="sRGB">
<feFlood flood-opacity="0" result="BackgroundImageFix"/>
<feColorMatrix in="SourceAlpha" type="matrix" values="0 0 0 0 0 0 0 0 0 0 0 0 0 0 0 0 0 0 127 0"/>
<feOffset dy="1"/>
<feGaussianBlur stdDeviation="5"/>
<feColorMatrix type="matrix" values="0 0 0 0 0 0 0 0 0 0 0 0 0 0 0 0 0 0 0.51 0"/>
<feBlend mode="normal" in2="BackgroundImageFix" result="effect1_dropShadow"/>
<feBlend mode="normal" in="SourceGraphic" in2="effect1_dropShadow" result="shape"/>
</filter>
</defs>
</svg>
