<svg width="27" height="23" viewBox="0 0 27 23" fill="none" xmlns="http://www.w3.org/2000/svg">
<path d="M14.402 18.6053L12.1144 20.546L4.46225 13.8898C2.97937 12.6345 1.92171 10.9541 1.43362 9.0781C1.22639 8.3706 1.16071 7.62948 1.2403 6.89679C1.30039 5.40033 1.92657 3.98184 2.99322 2.92582C4.05987 1.8698 5.48812 1.25435 6.99149 1.20293C8.08875 1.2053 9.16076 1.53099 10.0724 2.13894C10.9841 2.7469 11.6946 3.60992 12.1144 4.61924C12.5664 3.60344 13.3046 2.74 14.2397 2.13361C15.1747 1.52722 16.2664 1.20392 17.3823 1.20293C18.8857 1.25435 20.3139 1.8698 21.3806 2.92582C22.4472 3.98184 23.0734 5.40033 23.1335 6.89679C23.2194 7.6188 23.1535 8.3507 22.9402 9.04602C22.8583 9.45336 22.7341 9.85112 22.5697 10.2329" stroke="white" stroke-width="1.5" stroke-linecap="round" stroke-linejoin="round"/>
<path d="M20.0886 21.7971C23.2382 21.7971 25.7915 19.255 25.7915 16.1192C25.7915 12.9835 23.2382 10.4414 20.0886 10.4414C16.939 10.4414 14.3857 12.9835 14.3857 16.1192C14.3857 19.255 16.939 21.7971 20.0886 21.7971Z" stroke="white" stroke-width="1.5" stroke-miterlimit="10"/>
<path d="M21.7148 17.4648C21.7148 17.6888 21.6745 17.8906 21.5938 18.0703C21.5156 18.25 21.4036 18.4049 21.2578 18.5352C21.112 18.6654 20.9362 18.7695 20.7305 18.8477C20.5247 18.9258 20.2969 18.9753 20.0469 18.9961L19.9648 19.832C19.9622 19.8529 19.9557 19.8711 19.9453 19.8867C19.9375 19.9023 19.9206 19.9154 19.8945 19.9258C19.8711 19.9362 19.8372 19.944 19.793 19.9492C19.7513 19.957 19.6979 19.9609 19.6328 19.9609C19.5495 19.9609 19.4818 19.957 19.4297 19.9492C19.3802 19.9414 19.3411 19.9297 19.3125 19.9141C19.2839 19.901 19.2643 19.8828 19.2539 19.8594C19.2461 19.8359 19.2448 19.8099 19.25 19.7812L19.332 18.9883C19.2201 18.9727 19.1146 18.9531 19.0156 18.9297C18.9167 18.9036 18.8268 18.8763 18.7461 18.8477C18.6654 18.8164 18.5951 18.7852 18.5352 18.7539C18.4779 18.7227 18.4336 18.6927 18.4023 18.6641C18.3737 18.6328 18.3529 18.5885 18.3398 18.5312C18.3268 18.4714 18.3203 18.3841 18.3203 18.2695C18.3203 18.181 18.3229 18.1081 18.3281 18.0508C18.3333 17.9935 18.3424 17.9492 18.3555 17.918C18.3685 17.8867 18.3841 17.8659 18.4023 17.8555C18.4232 17.8424 18.4466 17.8359 18.4727 17.8359C18.5065 17.8359 18.556 17.8555 18.6211 17.8945C18.6862 17.9336 18.7695 17.9766 18.8711 18.0234C18.9727 18.0703 19.0951 18.1133 19.2383 18.1523C19.3841 18.1914 19.5547 18.2109 19.75 18.2109C20.0547 18.2109 20.2812 18.1549 20.4297 18.043C20.5781 17.9284 20.6523 17.7773 20.6523 17.5898C20.6523 17.4648 20.6198 17.362 20.5547 17.2812C20.4922 17.2005 20.4076 17.1302 20.3008 17.0703C20.194 17.0078 20.0729 16.9531 19.9375 16.9062C19.8047 16.8568 19.668 16.8047 19.5273 16.75C19.3867 16.6953 19.2487 16.6315 19.1133 16.5586C18.9805 16.4857 18.8607 16.3958 18.7539 16.2891C18.6471 16.1823 18.5612 16.0534 18.4961 15.9023C18.4336 15.7487 18.4023 15.5638 18.4023 15.3477C18.4023 15.1523 18.4349 14.9753 18.5 14.8164C18.5651 14.6549 18.6589 14.5143 18.7812 14.3945C18.9036 14.2747 19.0534 14.1784 19.2305 14.1055C19.4102 14.0299 19.6133 13.9792 19.8398 13.9531L19.918 13.168C19.9206 13.1471 19.9258 13.1302 19.9336 13.1172C19.944 13.1016 19.9609 13.0885 19.9844 13.0781C20.0104 13.0651 20.0443 13.056 20.0859 13.0508C20.1276 13.0456 20.1823 13.043 20.25 13.043C20.3307 13.043 20.3971 13.0469 20.4492 13.0547C20.5039 13.0625 20.5456 13.0742 20.5742 13.0898C20.6029 13.1029 20.6211 13.1211 20.6289 13.1445C20.6367 13.168 20.6406 13.194 20.6406 13.2227L20.5625 13.9609C20.6354 13.9714 20.7122 13.9857 20.793 14.0039C20.8737 14.0221 20.9492 14.0443 21.0195 14.0703C21.0898 14.0938 21.1536 14.1198 21.2109 14.1484C21.2682 14.1745 21.3073 14.1992 21.3281 14.2227C21.3516 14.2435 21.3685 14.2656 21.3789 14.2891C21.3919 14.3099 21.401 14.3372 21.4062 14.3711C21.4141 14.4023 21.4193 14.4414 21.4219 14.4883C21.4245 14.5326 21.4258 14.5846 21.4258 14.6445C21.4258 14.7253 21.4232 14.7917 21.418 14.8438C21.4154 14.8958 21.4089 14.9362 21.3984 14.9648C21.388 14.9909 21.3763 15.0091 21.3633 15.0195C21.3503 15.0273 21.3346 15.0312 21.3164 15.0312C21.2826 15.0312 21.2331 15.0143 21.168 14.9805C21.1029 14.9466 21.0221 14.9102 20.9258 14.8711C20.832 14.832 20.7227 14.7956 20.5977 14.7617C20.4753 14.7279 20.3398 14.7109 20.1914 14.7109C20.056 14.7109 19.9401 14.724 19.8438 14.75C19.7474 14.776 19.6693 14.8125 19.6094 14.8594C19.5495 14.9062 19.5052 14.9622 19.4766 15.0273C19.4479 15.0924 19.4336 15.1641 19.4336 15.2422C19.4336 15.3646 19.4661 15.4674 19.5312 15.5508C19.5964 15.6341 19.6823 15.7057 19.7891 15.7656C19.8984 15.8255 20.0208 15.8802 20.1562 15.9297C20.2943 15.9792 20.4336 16.0312 20.5742 16.0859C20.7174 16.1406 20.8568 16.2044 20.9922 16.2773C21.1302 16.3477 21.2526 16.4362 21.3594 16.543C21.4661 16.6471 21.5521 16.7747 21.6172 16.9258C21.6823 17.0742 21.7148 17.2539 21.7148 17.4648Z" fill="white"/>
</svg>
