<svg width="79" height="87" viewBox="0 0 79 87" fill="none" xmlns="http://www.w3.org/2000/svg">
<path d="M58.7301 16.4171C59.2035 15.6841 59.8823 15.1074 60.6815 14.7591C61.4808 14.4109 62.3649 14.3067 63.2231 14.4595C65.6249 14.9127 66.969 17.2935 66.7264 19.7862C66.6814 20.3693 66.525 20.9384 66.2656 21.4625C65.6309 22.8724 64.5856 24.0572 63.2667 24.8617L56.3664 29.0253L51.5545 22.672C50.6123 21.4431 50.0638 19.9573 49.9814 18.4101C49.9287 17.8271 49.9889 17.2394 50.1586 16.6792C50.8347 14.2684 52.9503 12.5374 55.3522 12.9879C57.1352 13.3155 58.3593 14.697 58.7301 16.4171Z" fill="#B54840"/>
<path d="M19.4274 14.9755C19.5443 14.0351 19.9353 13.15 20.5516 12.4308C21.1679 11.7117 21.9821 11.1904 22.8926 10.932C25.4553 10.2303 27.9035 11.9176 28.8523 14.4813C29.0858 15.0731 29.2034 15.7043 29.1985 16.3406C29.2478 18.0258 28.7848 19.6863 27.8708 21.1021L23.1107 28.4573L15.3789 24.5067C13.8723 23.756 12.6288 22.565 11.8128 21.0912C11.4844 20.546 11.2641 19.9425 11.164 19.3138C10.6787 16.6327 11.9246 13.9353 14.4874 13.2254C16.3903 12.7039 18.2469 13.4711 19.4274 14.9755Z" fill="#B54840"/>
<path d="M39.4716 8.40664C40.6287 6.88014 42.2107 5.73031 44.0186 5.10171C45.8266 4.4731 47.7797 4.39379 49.6325 4.87373C54.8125 6.26068 57.3616 11.6993 56.4183 17.1188C56.4183 17.1188 56.3201 18.5003 55.1315 20.7145C53.5011 23.6983 51.0059 26.1172 47.9749 27.652L32.2005 35.6188L22.7238 20.8756C20.8622 18.0308 19.9059 14.6875 19.9812 11.287C20.0548 8.77249 20.66 7.52751 20.66 7.52751C22.5439 2.36192 27.4622 -1.07817 32.6422 0.308785C36.4917 1.35173 38.9454 4.58159 39.4716 8.40664Z" fill="#D75A4A"/>
<path d="M34.7553 19.4204C35.2282 18.6876 35.9065 18.111 36.7053 17.7628C37.5041 17.4145 38.3878 17.3102 39.2455 17.4628C41.6474 17.916 42.9915 20.2968 42.7488 22.7895C42.7038 23.3726 42.5474 23.9417 42.2881 24.4658C41.6548 25.8766 40.6092 27.0618 39.2891 27.865L32.4025 32.0286L27.5797 25.6753C26.6351 24.4475 26.0856 22.9612 26.0039 21.4134C25.9511 20.8304 26.0113 20.2427 26.1811 19.6825C26.8599 17.2717 28.9728 15.5407 31.361 15.9912C33.1577 16.3188 34.3818 17.7003 34.7553 19.4204Z" fill="#B54840"/>
<path d="M4.91275 36.7518C4.91275 36.7518 -5.13097 59.3691 3.50325 79.0267C3.50325 79.0267 0.269848 85.0578 6.86479 81.7569C6.86479 81.7569 29.8776 92.5796 68.8447 81.9371C68.8447 81.9371 75.3196 84.509 72.3889 78.9339C72.3889 78.9339 79.0247 54.6812 70.4804 36.3423C70.4804 36.3423 73.2967 35.5232 71.3883 33.6121C69.4799 31.7009 68.8447 28.2963 70.7422 21.5308C70.7422 21.5308 68.1167 17.7768 63.6538 19.0518C59.1908 20.3268 33.3372 25.7517 11.5813 19.3248C11.5813 19.3248 1.90291 16.5045 4.91275 26.9694C5.00835 28.3025 4.72476 29.6354 4.09486 30.8136C2.92527 32.965 2.74533 36.0802 4.91275 36.7518Z" fill="#595B5F"/>
<mask id="mask0" mask-type="alpha" maskUnits="userSpaceOnUse" x="0" y="18" width="75" height="69">
<path d="M4.91299 36.7519C4.91299 36.7519 -5.13072 59.3691 3.50349 79.0268C3.50349 79.0268 0.270092 85.0579 6.86503 81.757C6.86503 81.757 29.8778 92.5796 68.8449 81.9372C68.8449 81.9372 75.3199 84.5091 72.3891 78.934C72.3891 78.934 79.0249 54.6813 70.4807 36.3424C70.4807 36.3424 73.297 35.5233 71.3885 33.6122C69.4801 31.701 68.8449 28.2964 70.7424 21.5309C70.7424 21.5309 68.117 17.7768 63.654 19.0519C59.1911 20.3269 33.3375 25.7518 11.5815 19.3249C11.5815 19.3249 1.90315 16.5046 4.91299 26.9695C5.00859 28.3026 4.72501 29.6354 4.0951 30.8137C2.92551 32.9651 2.74558 36.0803 4.91299 36.7519Z" fill="#595B5F"/>
</mask>
<g mask="url(#mask0)">
<path d="M1.77766 30.0628L2.41289 34.7042C2.41289 34.7042 40.2622 47.2632 81.0205 32.1569C81.0205 32.1569 47.5796 49.8133 11.955 39.7114C11.955 39.7114 -5.94869 82.849 44.488 87.6706C94.9247 92.4922 -15.3081 82.7562 -15.3081 82.7562L-7.67445 31.0184L1.77766 30.0628Z" fill="#485056"/>
<path d="M2.41314 26.4233C2.41314 26.4233 16.0447 31.3377 28.1304 31.1548C40.2161 30.9719 33.8556 38.5264 -0.675769 29.2436C-35.2072 19.9609 2.41314 26.4233 2.41314 26.4233Z" fill="#485056"/>
<path d="M-1.22119 20.3268C-1.22119 20.3268 27.2224 34.6141 84.2022 17.9597C141.182 1.30533 -0.768623 14.9565 -0.768623 14.9565L-1.22119 20.3268Z" fill="#807A8A"/>
<path d="M72.0702 24.6952C72.0702 24.6952 42.6506 34.1391 36.6745 34.1145C31.7208 34.0899 23.4056 41.5298 74.5239 31.6109L72.0702 24.6952Z" fill="#475154"/>
</g>
<path d="M33.025 67.05C33.025 68.1333 33.225 68.9 33.625 69.35C34.025 69.8167 34.725 70.1417 35.725 70.325L35.425 71.25C34.9917 71.2833 34.6667 71.3 34.45 71.3C33.45 71.3 32.6333 70.875 32 70.025C31.3833 69.1917 31.075 68.1 31.075 66.75C31.075 63.2833 31.325 60.1417 31.825 57.325C31.9917 56.3917 32.075 55.9 32.075 55.85C32.075 55.6833 32.0083 55.6 31.875 55.6C31.6083 55.6 31.1833 56.4333 30.6 58.1L29.875 60.175C28.8083 63.1917 27.725 65.5417 26.625 67.225C25.5417 68.9083 24.2917 70.0917 22.875 70.775L22.225 69.4C23.8417 68.2 25.0833 66.975 25.95 65.725C26.8333 64.475 27.7917 62.4583 28.825 59.675L29.675 57.4C30.2583 55.8167 30.7667 54.6917 31.2 54.025C31.6333 53.3417 32.1167 53 32.65 53C33.5333 53 33.975 53.5333 33.975 54.6C33.975 54.7667 33.9 55.5167 33.75 56.85C33.2667 60.8167 33.025 64.2167 33.025 67.05ZM51.824 55.35L47.824 54.85C46.1074 54.85 44.8074 55.075 43.924 55.525C43.0574 55.975 42.624 56.5833 42.624 57.35C42.624 57.6833 42.7657 57.975 43.049 58.225C43.349 58.4583 43.6407 58.575 43.924 58.575C44.2074 58.575 44.4324 58.5583 44.599 58.525C44.7657 58.4917 44.9074 58.4667 45.024 58.45C45.1407 58.4167 45.3074 58.3583 45.524 58.275C45.7574 58.1917 45.9157 58.1333 45.999 58.1C46.349 57.9333 46.7157 57.775 47.099 57.625L47.574 58.275C46.2074 59.525 44.7824 60.15 43.299 60.15C42.6157 60.15 42.0324 59.975 41.549 59.625C41.0824 59.2583 40.849 58.7667 40.849 58.15C40.849 56.65 41.5074 55.4417 42.824 54.525C44.1574 53.6083 46.0824 53.15 48.599 53.15C48.849 53.15 49.649 53.225 50.999 53.375C52.3657 53.5083 53.3657 53.575 53.999 53.575C54.649 53.575 55.4074 53.4833 56.274 53.3C57.1407 53.1167 57.6657 53.025 57.849 53.025C58.199 53.025 58.374 53.1667 58.374 53.45C58.374 53.9167 58.0157 54.3 57.299 54.6C56.2824 55.05 54.974 55.3 53.374 55.35C53.0407 55.5667 52.7824 55.7667 52.599 55.95C52.0824 56.4 51.5324 57.3333 50.949 58.75C52.249 58.0167 53.399 57.65 54.399 57.65C55.4157 57.65 56.2407 57.875 56.874 58.325C57.5074 58.7583 57.824 59.475 57.824 60.475C57.824 61.875 57.3074 63.2583 56.274 64.625C55.2407 65.9917 53.9074 67.1 52.274 67.95C50.6574 68.8 49.0324 69.225 47.399 69.225C46.6157 69.225 45.8324 69.1083 45.049 68.875C44.3657 69.4083 43.749 69.675 43.199 69.675C42.649 69.675 42.224 69.5167 41.924 69.2C41.6407 68.8833 41.499 68.4833 41.499 68C41.499 67 42.1657 65.7083 43.499 64.125C44.849 62.525 46.5407 61.1333 48.574 59.95C49.7074 57.5 50.7907 55.9667 51.824 55.35ZM44.774 67.075C45.774 65.9583 46.774 64.2833 47.774 62.05C47.8407 61.9 47.874 61.8167 47.874 61.8C46.8407 62.5 45.849 63.4417 44.899 64.625C43.949 65.7917 43.474 66.5917 43.474 67.025C43.474 67.4417 43.599 67.65 43.849 67.65C44.1157 67.65 44.424 67.4583 44.774 67.075ZM51.024 67.25C52.224 66.55 53.199 65.6833 53.949 64.65C54.7157 63.6 55.099 62.6417 55.099 61.775C55.099 60.8917 54.9407 60.3333 54.624 60.1C54.3074 59.85 53.7074 59.725 52.824 59.725C51.9574 59.725 51.0324 59.9833 50.049 60.5C49.849 60.9 49.5574 61.5333 49.174 62.4C48.7907 63.2667 48.474 63.9667 48.224 64.5C47.5407 65.95 46.7907 67.1167 45.974 68C46.4907 68.1833 47.0074 68.275 47.524 68.275C48.674 68.275 49.8407 67.9333 51.024 67.25Z" fill="white"/>
</svg>
