<svg width="32" height="31" viewBox="0 0 32 31" fill="none" xmlns="http://www.w3.org/2000/svg">
<g clip-path="url(#clip0)">
<path d="M27.9 21.94C29.5842 18.7843 30.0371 15.1158 29.1711 11.6452C28.3051 8.17462 26.1818 5.14899 23.2125 3.15446C20.2432 1.15992 16.6392 0.338457 13.0989 0.8492C9.55854 1.35994 6.33377 3.16654 4.04928 5.919C1.7648 8.67147 0.583222 12.1739 0.733455 15.7477C0.883688 19.3216 2.35504 22.7124 4.86246 25.2635C7.36989 27.8145 10.7349 29.3441 14.3056 29.5559C17.8764 29.7677 21.3986 28.6467 24.19 26.41L30.63 28.81L27.9 21.94Z" stroke="#CDCCCD" stroke-width="1.5" stroke-linecap="round" stroke-linejoin="round"/>
<path d="M15.3801 12C15.6579 11.3667 16.1142 10.828 16.6931 10.4497C17.272 10.0715 17.9486 9.87003 18.6401 9.87C19.5733 9.90206 20.4599 10.2858 21.122 10.9442C21.7841 11.6026 22.1728 12.487 22.2101 13.42C22.2634 13.8735 22.2225 14.333 22.0901 14.77C21.7902 15.941 21.1331 16.9895 20.2101 17.77L15.3801 21.92L10.6201 17.77C9.70599 16.9819 9.05079 15.9363 8.74014 14.77C8.61406 14.3318 8.57332 13.8735 8.62014 13.42C8.65744 12.487 9.04613 11.6026 9.70825 10.9442C10.3704 10.2858 11.2569 9.90206 12.1901 9.87C12.8727 9.87082 13.5397 10.0735 14.1073 10.4525C14.6749 10.8315 15.1178 11.3699 15.3801 12V12Z" stroke="#CDCCCD" stroke-width="1.5" stroke-linecap="round" stroke-linejoin="round"/>
</g>
<defs>
<clipPath id="clip0">
<rect width="31.95" height="30.33" fill="white"/>
</clipPath>
</defs>
</svg>
