<svg width="52" height="79" viewBox="0 0 52 79" fill="none" xmlns="http://www.w3.org/2000/svg">
<path d="M43.0421 12.5405C43.1091 12.004 43.3352 11.4997 43.6912 11.0927C44.0472 10.6857 44.5168 10.3945 45.0396 10.2565C46.49 9.90812 47.8449 10.9507 48.3481 12.4631C48.474 12.8138 48.5335 13.1849 48.5236 13.5573C48.5363 14.5304 48.2616 15.4856 47.7339 16.3033L44.957 20.4815L40.6549 18.0066C39.8105 17.5269 39.1264 16.8087 38.6883 15.942C38.5099 15.6152 38.3935 15.2582 38.3451 14.889C38.105 13.3122 38.8354 11.7663 40.2858 11.4153C41.362 11.1443 42.3969 11.6372 43.0421 12.5405Z" fill="#B54840"/>
<path d="M9.45598 11.3792C9.41562 10.6508 9.59189 9.92676 9.96254 9.29844C10.3332 8.67012 10.8816 8.16565 11.5387 7.84866C13.3839 6.9712 15.464 7.92092 16.5221 9.72488C16.7794 10.1411 16.9546 10.6028 17.0383 11.085C17.2987 12.353 17.1692 13.6702 16.6667 14.8632L14.0498 21.0571L7.6675 19.1215C6.42773 18.7608 5.32637 18.0329 4.50864 17.0336C4.18669 16.6645 3.93873 16.237 3.77828 15.7742C3.05308 13.8128 3.63633 11.6037 5.48159 10.7262C6.13324 10.4244 6.86051 10.3253 7.56915 10.4417C8.2778 10.5582 8.93513 10.8847 9.45598 11.3792Z" fill="#B54840"/>
<path d="M26.4424 6.29761C27.2561 4.73848 28.5122 3.45449 30.0531 2.60689C31.5941 1.75928 33.3511 1.38586 35.1035 1.53351C40.007 1.9903 43.1581 6.51956 43.1375 11.565C43.1375 11.565 43.2613 12.8296 42.5258 15.018C41.5067 17.9696 39.6172 20.543 37.1062 22.3991L24.0449 32.0408L13.185 20.1693C11.06 17.8802 9.67881 15.0008 9.22352 11.9108C8.9035 9.62681 9.25965 8.40611 9.25965 8.40611C10.1732 3.45102 14.0986 -0.420138 19.0098 0.0366588C22.6539 0.37474 25.3714 2.91938 26.4424 6.29761Z" fill="#D75A4A"/>
<path d="M31.2298 12.9896C31.7575 12.4839 32.4229 12.1453 33.1423 12.0163C33.8617 11.8873 34.6033 11.9736 35.2738 12.2644C37.1526 13.0979 37.7798 15.2968 37.101 17.2917C36.9535 17.763 36.716 18.2012 36.4016 18.5821C35.6025 19.5996 34.5151 20.3524 33.2815 20.7422L26.8605 22.8068L24.1714 16.6878C23.637 15.5028 23.4759 14.1832 23.7094 12.9044C23.78 12.4194 23.9429 11.9524 24.1894 11.5288C25.2088 9.69649 27.2683 8.68999 29.1393 9.52616C30.5278 10.1559 31.2582 11.5185 31.2298 12.9896Z" fill="#B54840"/>
<path d="M49.7083 14.4761L52 14.5122V78.3244H2.09817L0 15.2839H3.37823" fill="#8568AA"/>
<mask id="mask0" mask-type="alpha" maskUnits="userSpaceOnUse" x="0" y="14" width="52" height="65">
<path d="M49.7083 14.4761L52 14.5122V78.3244H2.09817L0 15.2839H3.37823" fill="#8568AA"/>
</mask>
<g mask="url(#mask0)">
<path d="M-2.98079 64.3031C-2.98079 64.3031 11.1335 66.8013 15.9156 66.8013C20.6978 66.8013 45.1997 65.036 41.7518 65.036C38.3038 65.036 69.0021 64.3031 69.0021 64.3031V88.3714L-14.4626 84.6163L-2.98079 64.3031Z" fill="#7D66A3"/>
<path d="M18 22C19.1046 22 20 21.1046 20 20C20 18.8954 19.1046 18 18 18C16.8954 18 16 18.8954 16 20C16 21.1046 16.8954 22 18 22Z" fill="#735996"/>
<path d="M35 21C36.1046 21 37 20.1046 37 19C37 17.8954 36.1046 17 35 17C33.8954 17 33 17.8954 33 19C33 20.1046 33.8954 21 35 21Z" fill="#735996"/>
</g>
<path d="M19.62 48.44C19.62 49.3067 19.78 49.92 20.1 50.28C20.42 50.6533 20.98 50.9133 21.78 51.06L21.54 51.8C21.1933 51.8267 20.9333 51.84 20.76 51.84C19.96 51.84 19.3067 51.5 18.8 50.82C18.3067 50.1533 18.06 49.28 18.06 48.2C18.06 45.4267 18.26 42.9133 18.66 40.66C18.7933 39.9133 18.86 39.52 18.86 39.48C18.86 39.3467 18.8067 39.28 18.7 39.28C18.4867 39.28 18.1467 39.9467 17.68 41.28L17.1 42.94C16.2467 45.3533 15.38 47.2333 14.5 48.58C13.6333 49.9267 12.6333 50.8733 11.5 51.42L10.98 50.32C12.2733 49.36 13.2667 48.38 13.96 47.38C14.6667 46.38 15.4333 44.7667 16.26 42.54L16.94 40.72C17.4067 39.4533 17.8133 38.5533 18.16 38.02C18.5067 37.4733 18.8933 37.2 19.32 37.2C20.0267 37.2 20.38 37.6267 20.38 38.48C20.38 38.6133 20.32 39.2133 20.2 40.28C19.8133 43.4533 19.62 46.1733 19.62 48.44ZM34.6592 39.08L31.4592 38.68C30.0859 38.68 29.0459 38.86 28.3392 39.22C27.6459 39.58 27.2992 40.0667 27.2992 40.68C27.2992 40.9467 27.4126 41.18 27.6392 41.38C27.8792 41.5667 28.1126 41.66 28.3392 41.66C28.5659 41.66 28.7459 41.6467 28.8792 41.62C29.0126 41.5933 29.1259 41.5733 29.2192 41.56C29.3126 41.5333 29.4459 41.4867 29.6192 41.42C29.8059 41.3533 29.9326 41.3067 29.9992 41.28C30.2792 41.1467 30.5726 41.02 30.8792 40.9L31.2592 41.42C30.1659 42.42 29.0259 42.92 27.8392 42.92C27.2926 42.92 26.8259 42.78 26.4392 42.5C26.0659 42.2067 25.8792 41.8133 25.8792 41.32C25.8792 40.12 26.4059 39.1533 27.4592 38.42C28.5259 37.6867 30.0659 37.32 32.0792 37.32C32.2792 37.32 32.9192 37.38 33.9992 37.5C35.0926 37.6067 35.8926 37.66 36.3992 37.66C36.9192 37.66 37.5259 37.5867 38.2192 37.44C38.9126 37.2933 39.3326 37.22 39.4792 37.22C39.7592 37.22 39.8992 37.3333 39.8992 37.56C39.8992 37.9333 39.6126 38.24 39.0392 38.48C38.2259 38.84 37.1792 39.04 35.8992 39.08C35.6326 39.2533 35.4259 39.4133 35.2792 39.56C34.8659 39.92 34.4259 40.6667 33.9592 41.8C34.9992 41.2133 35.9192 40.92 36.7192 40.92C37.5326 40.92 38.1926 41.1 38.6992 41.46C39.2059 41.8067 39.4592 42.38 39.4592 43.18C39.4592 44.3 39.0459 45.4067 38.2192 46.5C37.3926 47.5933 36.3259 48.48 35.0192 49.16C33.7259 49.84 32.4259 50.18 31.1192 50.18C30.4926 50.18 29.8659 50.0867 29.2392 49.9C28.6926 50.3267 28.1992 50.54 27.7592 50.54C27.3192 50.54 26.9792 50.4133 26.7392 50.16C26.5126 49.9067 26.3992 49.5867 26.3992 49.2C26.3992 48.4 26.9326 47.3667 27.9992 46.1C29.0792 44.82 30.4326 43.7067 32.0592 42.76C32.9659 40.8 33.8326 39.5733 34.6592 39.08ZM29.0192 48.46C29.8192 47.5667 30.6192 46.2267 31.4192 44.44C31.4726 44.32 31.4992 44.2533 31.4992 44.24C30.6726 44.8 29.8792 45.5533 29.1192 46.5C28.3592 47.4333 27.9792 48.0733 27.9792 48.42C27.9792 48.7533 28.0792 48.92 28.2792 48.92C28.4926 48.92 28.7392 48.7667 29.0192 48.46ZM34.0192 48.6C34.9792 48.04 35.7592 47.3467 36.3592 46.52C36.9726 45.68 37.2792 44.9133 37.2792 44.22C37.2792 43.5133 37.1526 43.0667 36.8992 42.88C36.6459 42.68 36.1659 42.58 35.4592 42.58C34.7659 42.58 34.0259 42.7867 33.2392 43.2C33.0792 43.52 32.8459 44.0267 32.5392 44.72C32.2326 45.4133 31.9792 45.9733 31.7792 46.4C31.2326 47.56 30.6326 48.4933 29.9792 49.2C30.3926 49.3467 30.8059 49.42 31.2192 49.42C32.1392 49.42 33.0726 49.1467 34.0192 48.6Z" fill="white"/>
<path d="M18 20C18 20 21.0333 46.2764 26.12 46.4002C31.2815 46.5241 35.5579 16.4065 35.0237 19.3021" stroke="#414240" stroke-width="2" stroke-linecap="round" stroke-linejoin="round"/>
</svg>
