<svg width="13" height="17" viewBox="0 0 13 17" fill="none" xmlns="http://www.w3.org/2000/svg">
<g clip-path="url(#clip0)">
<path d="M9.92996 7.7451V4.60471C9.9326 4.14946 9.84726 3.69813 9.67882 3.27651C9.51039 2.85489 9.26215 2.47122 8.94829 2.14741C8.63442 1.82361 8.26108 1.56601 7.84957 1.38932C7.43807 1.21263 6.99646 1.12032 6.54996 1.11765H5.99996C5.10345 1.13108 4.24842 1.50503 3.62101 2.15811C2.9936 2.8112 2.64459 3.69053 2.64996 4.60471V7.7451" stroke="white" stroke-width="1.5" stroke-miterlimit="10"/>
<path d="M1.75 7.32706H10.59C10.8552 7.32706 11.1096 7.43448 11.2971 7.6257C11.4846 7.81691 11.59 8.07625 11.59 8.34667V13.3631C11.59 13.904 11.3793 14.4227 11.0042 14.8051C10.6291 15.1875 10.1204 15.4024 9.59 15.4024H2.75C2.21957 15.4024 1.71086 15.1875 1.33579 14.8051C0.960714 14.4227 0.75 13.904 0.75 13.3631V8.34667C0.75 8.07625 0.855357 7.81691 1.04289 7.6257C1.23043 7.43448 1.48478 7.32706 1.75 7.32706V7.32706Z" stroke="white" stroke-width="1.5" stroke-miterlimit="10"/>
<path d="M6.17003 10.549C6.32867 10.549 6.48374 10.5971 6.6155 10.6872C6.74727 10.7773 6.84979 10.9053 6.91004 11.055C6.97028 11.2046 6.98553 11.3691 6.95384 11.5276C6.92216 11.6861 6.84496 11.8314 6.73208 11.9451C6.61919 12.0588 6.47572 12.1356 6.31988 12.1659C6.16404 12.1963 6.00288 12.1786 5.85689 12.1153C5.71089 12.052 5.58665 11.9459 5.49996 11.8104C5.41327 11.675 5.36804 11.5163 5.37003 11.3545C5.37266 11.14 5.4581 10.9351 5.60785 10.7843C5.75759 10.6335 5.95957 10.549 6.17003 10.549ZM6.17003 9.52941C5.81536 9.53544 5.47034 9.64818 5.1783 9.85348C4.88627 10.0588 4.66023 10.3475 4.52858 10.6833C4.39694 11.0192 4.36554 11.3872 4.43835 11.7411C4.51115 12.0951 4.68491 12.4193 4.9378 12.6729C5.19068 12.9265 5.51143 13.0983 5.85975 13.1667C6.20807 13.235 6.56844 13.1969 6.89561 13.0572C7.22277 12.9174 7.50214 12.6822 7.69863 12.3811C7.89512 12.08 7.99998 11.7264 8.00003 11.3647C8.00006 11.1211 7.95252 10.8799 7.8602 10.6552C7.76787 10.4305 7.63259 10.2269 7.46226 10.056C7.29192 9.8852 7.08993 9.75065 6.86807 9.66024C6.64621 9.56983 6.40892 9.52535 6.17003 9.52941Z" fill="white"/>
</g>
<defs>
<clipPath id="clip0">
<rect width="12.34" height="15.8039" fill="white" transform="translate(0 0.352943)"/>
</clipPath>
</defs>
</svg>
