<svg width="202" height="50" viewBox="0 0 202 50" fill="none" xmlns="http://www.w3.org/2000/svg">
<path d="M17.5 49.5L17.5 38L29 38L17.5 49.5Z" fill="#FDFEFE"/>
<rect width="202" height="40" fill="#FDFEFE"/>
<path d="M172.928 13.4883C173.897 11.4351 176.11 10.0004 178.684 10.0004C182.151 10.0004 184.648 12.6529 184.962 15.8142C184.962 15.8142 185.131 16.5989 184.758 18.0116C184.25 19.9357 183.056 21.6451 181.447 22.9496L172.928 29.7468L164.553 22.9492C162.944 21.6451 161.75 19.9352 161.242 18.0112C160.869 16.5984 161.038 15.8137 161.038 15.8137C161.352 12.6525 163.849 10 167.316 10C169.891 10 171.96 11.4351 172.928 13.4883Z" fill="#FA4D61"/>
<path d="M20.092 24V14.9H23.81C24.8847 14.9 25.734 15.1903 26.358 15.771C26.982 16.3517 27.294 17.1187 27.294 18.072C27.294 19.086 26.9473 19.8747 26.254 20.438C25.5607 20.9927 24.681 21.27 23.615 21.27H22.094V24H20.092ZM22.094 19.489H23.68C24.174 19.489 24.5597 19.359 24.837 19.099C25.123 18.839 25.266 18.501 25.266 18.085C25.266 17.643 25.123 17.305 24.837 17.071C24.551 16.8283 24.1523 16.707 23.641 16.707H22.094V19.489ZM28.9056 24L32.8056 14.835H34.6516L38.5516 24H36.4586L35.6266 21.959H31.7786L30.9466 24H28.9056ZM32.4936 20.191H34.9116L33.7026 17.24L32.4936 20.191ZM44.1031 14.744C45.0738 14.744 45.8624 14.9737 46.4691 15.433C47.0844 15.8923 47.3921 16.4773 47.3921 17.188C47.3921 18.1587 46.9024 18.8563 45.9231 19.281C47.0584 19.645 47.6261 20.36 47.6261 21.426C47.6261 22.2233 47.3098 22.8777 46.6771 23.389C46.0531 23.9003 45.2168 24.156 44.1681 24.156C43.2408 24.156 42.4608 24.0303 41.8281 23.779C41.2041 23.5277 40.6364 23.1463 40.1251 22.635L41.1911 21.244C41.9798 22.0153 42.9461 22.401 44.0901 22.401C44.5321 22.401 44.8961 22.3057 45.1821 22.115C45.4768 21.9157 45.6241 21.647 45.6241 21.309C45.6241 20.945 45.4594 20.6763 45.1301 20.503C44.8094 20.3297 44.3718 20.243 43.8171 20.243H42.7641V18.579H43.7911C44.8744 18.579 45.4161 18.228 45.4161 17.526C45.4161 17.214 45.2818 16.967 45.0131 16.785C44.7444 16.603 44.3891 16.512 43.9471 16.512C42.9591 16.512 42.1401 16.8457 41.4901 17.513L40.4371 16.239C41.3904 15.2423 42.6124 14.744 44.1031 14.744ZM49.32 25.898V22.193H50.178C50.5333 21.3697 50.789 20.4987 50.945 19.58C51.101 18.6613 51.179 17.4567 51.179 15.966V14.9H57.796V22.193H58.888L58.628 25.898H56.951V24H51.257L51.127 25.898H49.32ZM55.794 16.707H53.103V17.63C53.103 19.346 52.83 20.867 52.284 22.193H55.794V16.707ZM60.4159 24L64.3159 14.835H66.1619L70.0619 24H67.9689L67.1369 21.959H63.2889L62.4569 24H60.4159ZM64.0039 20.191H66.4219L65.2129 17.24L64.0039 20.191ZM72.3764 24V14.9H76.6014C77.65 14.9 78.443 15.1687 78.9804 15.706C79.3964 16.122 79.6044 16.6463 79.6044 17.279C79.6044 18.137 79.2057 18.7913 78.4084 19.242C78.9717 19.4587 79.3964 19.7447 79.6824 20.1C79.9684 20.4467 80.1114 20.9147 80.1114 21.504C80.1114 22.3187 79.808 22.9383 79.2014 23.363C78.5947 23.7877 77.7627 24 76.7054 24H72.3764ZM74.3264 18.579H76.1724C77.1344 18.579 77.6154 18.2497 77.6154 17.591C77.6154 17.2877 77.5027 17.058 77.2774 16.902C77.052 16.7373 76.727 16.655 76.3024 16.655H74.3264V18.579ZM74.3264 22.245H76.7054C77.65 22.245 78.1224 21.907 78.1224 21.231C78.1224 20.5723 77.6284 20.243 76.6404 20.243H74.3264V22.245ZM81.8882 24L85.7882 14.835H87.6342L91.5342 24H89.4412L88.6092 21.959H84.7612L83.9292 24H81.8882ZM85.4762 20.191H87.8942L86.6852 17.24L85.4762 20.191ZM101.688 14.9V24H99.7117V18.033L95.7337 24H93.8487V14.9H95.8247V20.867L99.8287 14.9H101.688ZM99.2697 13.691C98.8884 14.0377 98.3987 14.211 97.8007 14.211C97.2027 14.211 96.7087 14.0377 96.3187 13.691C95.9374 13.3443 95.7034 12.859 95.6167 12.235L96.7737 12.027C96.9557 12.6077 97.2981 12.898 97.8007 12.898C98.3034 12.898 98.6457 12.6077 98.8277 12.027L99.9847 12.235C99.8981 12.859 99.6597 13.3443 99.2697 13.691Z" fill="#535353"/>
</svg>
