<svg width="202" height="50" viewBox="0 0 202 50" fill="none" xmlns="http://www.w3.org/2000/svg">
<path d="M184.5 49.5L184.5 38L173 38L184.5 49.5Z" fill="#F7F8FB"/>
<rect width="202" height="40" transform="matrix(-1 0 0 1 202 0)" fill="#F7F8FB"/>
<path d="M172.928 13.4883C173.897 11.4351 176.11 10.0004 178.684 10.0004C182.151 10.0004 184.648 12.6529 184.962 15.8142C184.962 15.8142 185.131 16.5989 184.758 18.0116C184.25 19.9357 183.056 21.6451 181.447 22.9496L172.928 29.7468L164.553 22.9492C162.944 21.6451 161.75 19.9352 161.242 18.0112C160.869 16.5984 161.038 15.8137 161.038 15.8137C161.352 12.6525 163.849 10 167.316 10C169.891 10 171.96 11.4351 172.928 13.4883Z" fill="#FA4D61"/>
<path d="M23.092 25V15.9H30.684V25H28.682V17.707H25.094V25H23.092ZM41.6554 23.791C40.7367 24.701 39.5841 25.156 38.1974 25.156C36.8107 25.156 35.6581 24.701 34.7394 23.791C33.8294 22.881 33.3744 21.7673 33.3744 20.45C33.3744 19.1413 33.8337 18.032 34.7524 17.122C35.6797 16.2033 36.8367 15.744 38.2234 15.744C39.6101 15.744 40.7584 16.199 41.6684 17.109C42.5871 18.019 43.0464 19.1327 43.0464 20.45C43.0464 21.7587 42.5827 22.8723 41.6554 23.791ZM36.2474 22.478C36.7674 23.0327 37.4261 23.31 38.2234 23.31C39.0207 23.31 39.6751 23.037 40.1864 22.491C40.6977 21.9363 40.9534 21.256 40.9534 20.45C40.9534 19.6527 40.6934 18.9767 40.1734 18.422C39.6534 17.8673 38.9947 17.59 38.1974 17.59C37.4001 17.59 36.7457 17.8673 36.2344 18.422C35.7231 18.968 35.4674 19.644 35.4674 20.45C35.4674 21.2473 35.7274 21.9233 36.2474 22.478ZM46.9413 15.9H53.4413V25H51.4393V17.707H48.8133V18.396C48.8133 20.1727 48.705 21.5507 48.4883 22.53C48.2803 23.5093 47.9726 24.1853 47.5653 24.558C47.158 24.9307 46.5903 25.117 45.8623 25.117C45.455 25.117 45.104 25.078 44.8093 25L44.9393 23.349C45.0606 23.3663 45.1646 23.375 45.2513 23.375C45.546 23.375 45.7843 23.3143 45.9663 23.193C46.157 23.063 46.3303 22.8073 46.4863 22.426C46.651 22.0447 46.768 21.477 46.8373 20.723C46.9066 19.9603 46.9413 18.981 46.9413 17.785V15.9ZM60.38 20.71L62.577 15.9H64.748L61.251 22.933C60.861 23.713 60.4276 24.2763 59.951 24.623C59.483 24.9697 58.924 25.143 58.274 25.143C57.5893 25.143 56.935 24.9653 56.311 24.61L57.091 23.141C57.4203 23.3403 57.78 23.44 58.17 23.44C58.6206 23.44 59.002 23.1973 59.314 22.712L55.674 15.9H57.91L60.38 20.71ZM72.2668 25V21.607C71.3482 22.0577 70.5465 22.283 69.8618 22.283C68.9172 22.283 68.1718 22.0273 67.6258 21.516C67.0798 21.0047 66.8068 20.242 66.8068 19.228V15.9H68.8088V18.643C68.8088 19.8217 69.2985 20.411 70.2778 20.411C71.1012 20.411 71.7642 20.216 72.2668 19.826V15.9H74.2688V25H72.2668ZM76.5768 25L80.4768 15.835H82.3228L86.2228 25H84.1298L83.2978 22.959H79.4498L78.6178 25H76.5768ZM80.1648 21.191H82.5828L81.3738 18.24L80.1648 21.191ZM96.3764 15.9V25H94.4004V19.033L90.4224 25H88.5374V15.9H90.5134V21.867L94.5174 15.9H96.3764ZM93.9584 14.691C93.577 15.0377 93.0874 15.211 92.4894 15.211C91.8914 15.211 91.3974 15.0377 91.0074 14.691C90.626 14.3443 90.392 13.859 90.3054 13.235L91.4624 13.027C91.6444 13.6077 91.9867 13.898 92.4894 13.898C92.992 13.898 93.3344 13.6077 93.5164 13.027L94.6734 13.235C94.5867 13.859 94.3484 14.3443 93.9584 14.691Z" fill="#535353"/>
</svg>
