<svg width="28" height="35" viewBox="0 0 28 35" fill="none" xmlns="http://www.w3.org/2000/svg">
<g clip-path="url(#clip0)">
<path d="M24.33 14.98H2.43995C2.16933 14.98 1.94995 15.1994 1.94995 15.47V16C1.94995 16.2706 2.16933 16.49 2.43995 16.49H24.33C24.6006 16.49 24.82 16.2706 24.82 16V15.47C24.82 15.1994 24.6006 14.98 24.33 14.98Z" fill="url(#paint0_linear)"/>
<path d="M24.35 26.56V31.69C24.35 32.2204 24.1393 32.7291 23.7642 33.1042C23.3891 33.4793 22.8804 33.69 22.35 33.69H2.75C2.21957 33.69 1.71086 33.4793 1.33579 33.1042C0.960714 32.7291 0.75 32.2204 0.75 31.69V14.35C0.75 13.8196 0.960714 13.3109 1.33579 12.9358C1.71086 12.5607 2.21957 12.35 2.75 12.35H3.75" stroke="url(#paint1_linear)" stroke-width="1.5" stroke-linecap="round" stroke-linejoin="round"/>
<path d="M23 13C23.5304 13 23.3892 12.5607 23.7643 12.9358C24.1394 13.3109 24.3501 13.8196 24.3501 14.35V20.21" stroke="url(#paint2_linear)" stroke-width="1.5" stroke-linecap="round" stroke-linejoin="round"/>
<path d="M25.6599 21.13V25.74H20.6599C20.3444 25.7608 20.0281 25.7166 19.7304 25.6102C19.4327 25.5037 19.16 25.3373 18.9292 25.1213C18.6984 24.9052 18.5144 24.644 18.3887 24.354C18.2629 24.0639 18.198 23.7512 18.198 23.435C18.198 23.1189 18.2629 22.8061 18.3887 22.516C18.5144 22.226 18.6984 21.9648 18.9292 21.7487C19.16 21.5327 19.4327 21.3663 19.7304 21.2598C20.0281 21.1534 20.3444 21.1092 20.6599 21.13H25.6599ZM27.1599 19.63H20.6499C20.1338 19.6035 19.6177 19.6823 19.1331 19.8616C18.6484 20.0409 18.2052 20.3169 17.8306 20.6728C17.4559 21.0287 17.1576 21.4572 16.9538 21.932C16.7499 22.4069 16.6448 22.9182 16.6448 23.435C16.6448 23.9518 16.7499 24.4631 16.9538 24.938C17.1576 25.4129 17.4559 25.8413 17.8306 26.1972C18.2052 26.5531 18.6484 26.8291 19.1331 27.0084C19.6177 27.1877 20.1338 27.2665 20.6499 27.24H27.1599V19.63Z" fill="url(#paint3_linear)"/>
<path d="M20.9699 24.54C21.5553 24.54 22.0299 24.0654 22.0299 23.48C22.0299 22.8946 21.5553 22.42 20.9699 22.42C20.3845 22.42 19.9099 22.8946 19.9099 23.48C19.9099 24.0654 20.3845 24.54 20.9699 24.54Z" fill="url(#paint4_linear)"/>
<path d="M22.8599 15.74L23.1699 9.69C23.2605 7.73165 22.7699 5.79025 21.7599 4.11C21.3942 3.46727 20.9127 2.8977 20.3399 2.43C17.9199 0.379997 14.4999 0.0699968 12.3399 2.25C11.5731 3.03911 11.0567 4.03733 10.8556 5.11914C10.6546 6.20095 10.7778 7.31805 11.2099 8.33C10.2226 7.86967 9.11782 7.72353 8.04478 7.91131C6.97175 8.09909 5.98223 8.61174 5.20993 9.38C4.42197 10.2179 3.91325 11.2794 3.75385 12.4185C3.59446 13.5576 3.79223 14.718 4.31993 15.74H22.8599Z" stroke="url(#paint5_linear)" stroke-width="1.5" stroke-linecap="round" stroke-linejoin="round"/>
</g>
<defs>
<linearGradient id="paint0_linear" x1="13.385" y1="14.98" x2="13.385" y2="16.49" gradientUnits="userSpaceOnUse">
<stop stop-color="#FB4E5F"/>
<stop offset="1" stop-color="#ED4991"/>
</linearGradient>
<linearGradient id="paint1_linear" x1="12.55" y1="12.35" x2="12.55" y2="33.69" gradientUnits="userSpaceOnUse">
<stop stop-color="#FB4E5F"/>
<stop offset="1" stop-color="#ED4991"/>
</linearGradient>
<linearGradient id="paint2_linear" x1="23.3501" y1="12.35" x2="23.3501" y2="20.21" gradientUnits="userSpaceOnUse">
<stop stop-color="#FB4E5F"/>
<stop offset="1" stop-color="#ED4991"/>
</linearGradient>
<linearGradient id="paint3_linear" x1="21.9023" y1="19.625" x2="21.9023" y2="27.245" gradientUnits="userSpaceOnUse">
<stop stop-color="#FB4E5F"/>
<stop offset="1" stop-color="#ED4991"/>
</linearGradient>
<linearGradient id="paint4_linear" x1="20.9699" y1="22.42" x2="20.9699" y2="24.54" gradientUnits="userSpaceOnUse">
<stop stop-color="#FB4E5F"/>
<stop offset="1" stop-color="#ED4991"/>
</linearGradient>
<linearGradient id="paint5_linear" x1="13.4404" y1="0.748444" x2="13.4404" y2="15.74" gradientUnits="userSpaceOnUse">
<stop stop-color="#FB4E5F"/>
<stop offset="1" stop-color="#ED4991"/>
</linearGradient>
<clipPath id="clip0">
<rect width="27.16" height="34.44" fill="white"/>
</clipPath>
</defs>
</svg>
