<svg width="173" height="143" viewBox="0 0 173 143" fill="none" xmlns="http://www.w3.org/2000/svg">
<mask id="mask0" mask-type="alpha" maskUnits="userSpaceOnUse" x="0" y="0" width="173" height="143">
<path d="M127.595 0.209229C152.5 0.209229 170.464 19.2779 172.724 42.0081C172.724 42.0081 173.942 47.6526 171.26 57.8095C167.61 71.624 159.007 83.9123 147.449 93.3081L87.2566 142.149L26.0455 93.3081C14.4833 83.9396 5.8917 71.6436 2.2341 57.8134C-0.435901 47.6643 0.770285 42.0198 0.770285 42.0198C3.03042 19.2935 20.9788 0.217037 45.8988 0.217037C64.4015 0.217037 80.3083 10.5301 87.2527 25.2893C94.2165 10.5262 109.089 0.209229 127.595 0.209229Z" fill="white"/>
</mask>
<g mask="url(#mask0)">
<path d="M87.2568 25.2698C94.2167 10.5106 109.089 0.193643 127.596 0.193643C152.5 0.193643 170.464 19.2623 172.724 41.9964C172.724 41.9964 173.942 47.6409 171.26 57.7978C167.611 71.6241 159.007 83.9124 147.449 93.3198L87.2568 142.149L26.0457 93.3081C24.7966 92.301 23.5839 91.2601 22.4077 90.1853C20.6472 88.5575 -25.3831 53.6718 18.5041 23.4352C62.3914 -6.80145 87.2568 25.2698 87.2568 25.2698Z" fill="url(#paint0_linear)"/>
<path d="M0.754615 42.0002C3.01475 19.2622 20.9631 0.197428 45.8832 0.197428C64.3858 0.197428 80.2926 10.5105 87.2604 25.2697C87.2604 25.2697 37.393 122.467 -2.19645 59.8666C-36.481 5.62721 15.3928 108.875 -1.34548 58.1373C-11.6156 27.0185 0.754615 42.0002 0.754615 42.0002Z" fill="#FF6378"/>
</g>
<defs>
<linearGradient id="paint0_linear" x1="26.0536" y1="6.96628" x2="130.277" y2="115.874" gradientUnits="userSpaceOnUse">
<stop stop-color="#ED4990"/>
<stop offset="1" stop-color="#FB4E5F"/>
</linearGradient>
</defs>
</svg>
