<svg width="31" height="31" viewBox="0 0 31 31" fill="none" xmlns="http://www.w3.org/2000/svg">
<path d="M14.71 12C17.7475 12 20.21 9.53757 20.21 6.5C20.21 3.46243 17.7475 1 14.71 1C11.6724 1 9.20996 3.46243 9.20996 6.5C9.20996 9.53757 11.6724 12 14.71 12Z" stroke="#CDCCCD" stroke-width="1.5" stroke-miterlimit="10"/>
<path d="M19.54 17.21H30" stroke="#CDCCCD" stroke-width="1.5" stroke-miterlimit="10" stroke-linecap="round"/>
<path d="M12.96 23.5498H30" stroke="#CDCCCD" stroke-width="1.5" stroke-miterlimit="10" stroke-linecap="round"/>
<path d="M1 30.1299H30" stroke="#CDCCCD" stroke-width="1.5" stroke-miterlimit="10" stroke-linecap="round"/>
<path d="M19.1201 14.3302C17.5841 13.745 15.9537 13.4467 14.3101 13.4502C11.3333 13.4596 8.44229 14.4476 6.08232 16.2618C3.72235 18.0761 2.0244 20.616 1.25007 23.4902C1.10023 24.102 1.02965 24.7305 1.04007 25.3602V30.0702" stroke="#CDCCCD" stroke-width="1.5" stroke-miterlimit="10" stroke-linecap="round"/>
</svg>
