<svg width="24" height="24" viewBox="0 0 24 24" fill="none" xmlns="http://www.w3.org/2000/svg">
<path d="M17.1864 19.5723C20.0751 17.4432 21.1249 13.5453 19.694 10.2535C17.8249 5.94838 12.7015 4.323 8.74159 6.55053L7.69569 4.73898C7.63759 4.63834 7.48092 4.65751 7.43232 4.76943L5.28385 9.66229C5.24819 9.74578 5.30085 9.83699 5.39099 9.84785L10.7026 10.4337C10.8238 10.4475 10.9169 10.3183 10.8606 10.2208L9.81654 8.41239C12.6064 6.86034 16.1788 7.93452 17.6134 10.8551C18.8493 13.3663 18.0104 16.4673 15.6809 18.0177C13.2121 19.6611 9.97579 19.0891 8.18765 16.8925C7.85565 16.4846 7.27368 16.3845 6.8208 16.6459C6.25783 16.971 6.10624 17.7252 6.51569 18.2311C9.05485 21.3652 13.7352 22.1142 17.1864 19.5723Z" fill="#F9707F"/>
</svg>
