<svg width="36" height="36" viewBox="0 0 36 36" fill="none" xmlns="http://www.w3.org/2000/svg">
<path d="M11.88 33H24.29C24.29 33 24.29 31.65 24.29 30.88C24.29 28.98 23.47 28.19 21.71 28.19C19.95 28.19 20.13 25.77 20.13 24C20.13 23.59 28.29 24.87 28.29 5.75H8.08997" stroke="#CDCCCD" stroke-width="1.5" stroke-linecap="round" stroke-linejoin="round"/>
<path d="M24.5 33H12.09C12.09 33 12 31.68 12 30.91C12 29.01 12.83 28.22 14.58 28.22C16.33 28.22 16.21 25.77 16.21 23.97C16.21 23.56 8.05005 24.84 8.05005 5.72H28.25" stroke="#CDCCCD" stroke-width="1.5" stroke-linecap="round" stroke-linejoin="round"/>
<path d="M18 12.13C18.1638 11.7547 18.4338 11.4354 18.7767 11.2116C19.1196 10.9877 19.5205 10.869 19.93 10.87C20.4788 10.9022 20.9956 11.1387 21.3787 11.533C21.7618 11.9272 21.9835 12.4505 22 13C22.0256 13.2654 22.0019 13.5332 21.93 13.79C21.7514 14.486 21.364 15.1106 20.82 15.58L18 18L15.18 15.55C14.636 15.0806 14.2486 14.456 14.07 13.76C14.0017 13.5128 13.978 13.2555 14 13C14.0246 12.4493 14.2551 11.9278 14.6459 11.5389C15.0366 11.15 15.5591 10.922 16.11 10.9C16.5108 10.8978 16.9034 11.0132 17.2393 11.2318C17.5752 11.4504 17.8397 11.7627 18 12.13V12.13Z" stroke="#CDCCCD" stroke-width="1.5" stroke-linecap="round" stroke-linejoin="round"/>
<path d="M7.72001 5.72H3.18001C3.18001 5.72 1.68001 18.72 10.31 19.58" stroke="#CDCCCD" stroke-width="1.5" stroke-linecap="round" stroke-linejoin="round"/>
<path d="M28.62 5.72H33.16C33.16 5.72 34.66 18.72 26.04 19.58" stroke="#CDCCCD" stroke-width="1.5" stroke-linecap="round" stroke-linejoin="round"/>
</svg>
