<svg width="36" height="36" viewBox="0 0 36 36" fill="none" xmlns="http://www.w3.org/2000/svg">
<path d="M11.8801 33H24.2901C24.2901 33 24.2901 31.65 24.2901 30.88C24.2901 28.98 23.4701 28.19 21.7101 28.19C19.9501 28.19 20.1301 25.77 20.1301 24C20.1301 23.59 28.2901 24.87 28.2901 5.75H8.09009" stroke="url(#paint0_linear)" stroke-width="1.5" stroke-linecap="round" stroke-linejoin="round"/>
<path d="M24.5 33H12.09C12.09 33 12 31.68 12 30.91C12 29.01 12.83 28.22 14.58 28.22C16.33 28.22 16.21 25.77 16.21 23.97C16.21 23.56 8.05005 24.84 8.05005 5.72H28.25" stroke="url(#paint1_linear)" stroke-width="1.5" stroke-linecap="round" stroke-linejoin="round"/>
<path d="M17.9999 12.13C18.1637 11.7547 18.4337 11.4354 18.7766 11.2116C19.1195 10.9877 19.5204 10.869 19.9299 10.87C20.4786 10.9022 20.9955 11.1387 21.3786 11.533C21.7617 11.9272 21.9833 12.4505 21.9999 13C22.0255 13.2654 22.0018 13.5332 21.9299 13.79C21.7512 14.486 21.3639 15.1106 20.8199 15.58L17.9999 18L15.1799 15.55C14.6359 15.0806 14.2485 14.456 14.0699 13.76C14.0016 13.5128 13.9779 13.2555 13.9999 13C14.0245 12.4493 14.255 11.9278 14.6458 11.5389C15.0365 11.15 15.559 10.922 16.1099 10.9C16.5107 10.8978 16.9033 11.0132 17.2392 11.2318C17.5751 11.4504 17.8396 11.7627 17.9999 12.13V12.13Z" stroke="url(#paint2_linear)" stroke-width="1.5" stroke-linecap="round" stroke-linejoin="round"/>
<path d="M7.71989 5.72H3.17989C3.17989 5.72 1.67989 18.72 10.3099 19.58" stroke="url(#paint3_linear)" stroke-width="1.5" stroke-linecap="round" stroke-linejoin="round"/>
<path d="M28.62 5.72H33.16C33.16 5.72 34.66 18.72 26.04 19.58" stroke="url(#paint4_linear)" stroke-width="1.5" stroke-linecap="round" stroke-linejoin="round"/>
<defs>
<linearGradient id="paint0_linear" x1="18.1901" y1="5.75" x2="18.1901" y2="33" gradientUnits="userSpaceOnUse">
<stop stop-color="#FB4E5F"/>
<stop offset="1" stop-color="#ED4991"/>
</linearGradient>
<linearGradient id="paint1_linear" x1="18.15" y1="5.72" x2="18.15" y2="33" gradientUnits="userSpaceOnUse">
<stop stop-color="#FB4E5F"/>
<stop offset="1" stop-color="#ED4991"/>
</linearGradient>
<linearGradient id="paint2_linear" x1="18.0009" y1="10.87" x2="18.0009" y2="18" gradientUnits="userSpaceOnUse">
<stop stop-color="#FB4E5F"/>
<stop offset="1" stop-color="#ED4991"/>
</linearGradient>
<linearGradient id="paint3_linear" x1="6.69498" y1="5.72" x2="6.69498" y2="19.58" gradientUnits="userSpaceOnUse">
<stop stop-color="#FB4E5F"/>
<stop offset="1" stop-color="#ED4991"/>
</linearGradient>
<linearGradient id="paint4_linear" x1="29.65" y1="5.72" x2="29.65" y2="19.58" gradientUnits="userSpaceOnUse">
<stop stop-color="#FB4E5F"/>
<stop offset="1" stop-color="#ED4991"/>
</linearGradient>
</defs>
</svg>
