<svg width="54" height="49" viewBox="0 0 54 49" fill="none" xmlns="http://www.w3.org/2000/svg">
<g opacity="0.6" filter="url(#filter0_d)">
<path d="M26.8983 14.1229C28.2706 11.1075 31.4055 9.0006 35.0517 9.0006C39.9634 9.0006 43.5009 12.8961 43.9456 17.5386C43.9456 17.5386 44.1856 18.691 43.6573 20.7658C42.9378 23.5914 41.2466 26.1018 38.9665 28.0177L26.8983 38L15.0335 28.017C12.7534 26.1018 11.0622 23.5908 10.3427 20.7651C9.81436 18.6904 10.0544 17.5379 10.0544 17.5379C10.4991 12.8954 14.0366 8.99997 18.9483 8.99997C22.5952 8.99997 25.5261 11.1075 26.8983 14.1229Z" fill="white"/>
</g>
<defs>
<filter id="filter0_d" x="0" y="-3.05176e-05" width="54" height="49" filterUnits="userSpaceOnUse" color-interpolation-filters="sRGB">
<feFlood flood-opacity="0" result="BackgroundImageFix"/>
<feColorMatrix in="SourceAlpha" type="matrix" values="0 0 0 0 0 0 0 0 0 0 0 0 0 0 0 0 0 0 127 0"/>
<feOffset dy="1"/>
<feGaussianBlur stdDeviation="5"/>
<feColorMatrix type="matrix" values="0 0 0 0 0 0 0 0 0 0 0 0 0 0 0 0 0 0 0.51 0"/>
<feBlend mode="normal" in2="BackgroundImageFix" result="effect1_dropShadow"/>
<feBlend mode="normal" in="SourceGraphic" in2="effect1_dropShadow" result="shape"/>
</filter>
</defs>
</svg>
