<svg width="36" height="36" viewBox="0 0 36 36" fill="none" xmlns="http://www.w3.org/2000/svg">
<path d="M15.172 22H13.036L9.94 13.996H11.884L14.104 20.152L16.312 13.996H18.256L15.172 22ZM21.8391 22.144C20.4151 22.144 19.2871 21.72 18.4551 20.872L19.3791 19.576C20.0671 20.296 20.9151 20.656 21.9231 20.656C22.3631 20.656 22.7031 20.572 22.9431 20.404C23.1911 20.228 23.3151 20.016 23.3151 19.768C23.3151 19.552 23.1991 19.372 22.9671 19.228C22.7431 19.084 22.4591 18.98 22.1151 18.916C21.7791 18.852 21.4111 18.76 21.0111 18.64C20.6111 18.52 20.2391 18.384 19.8951 18.232C19.5591 18.08 19.2751 17.84 19.0431 17.512C18.8191 17.184 18.7071 16.784 18.7071 16.312C18.7071 15.624 18.9831 15.048 19.5351 14.584C20.0871 14.112 20.8231 13.876 21.7431 13.876C23.0151 13.876 24.0551 14.248 24.8631 14.992L23.9151 16.24C23.2831 15.656 22.5071 15.364 21.5871 15.364C21.2271 15.364 20.9471 15.436 20.7471 15.58C20.5471 15.724 20.4471 15.92 20.4471 16.168C20.4471 16.36 20.5591 16.524 20.7831 16.66C21.0151 16.788 21.2991 16.884 21.6351 16.948C21.9791 17.012 22.3471 17.108 22.7391 17.236C23.1391 17.356 23.5071 17.496 23.8431 17.656C24.1871 17.808 24.4711 18.052 24.6951 18.388C24.9271 18.716 25.0431 19.112 25.0431 19.576C25.0431 20.344 24.7671 20.964 24.2151 21.436C23.6711 21.908 22.8791 22.144 21.8391 22.144Z" fill="url(#paint0_linear)"/>
<path d="M17.5257 9.20007C18.2076 7.6482 19.328 6.32934 20.7492 5.40554C22.1705 4.48174 23.8306 3.99324 25.5257 4.00007C30.3357 4.00007 33.7957 7.95007 34.2257 12.6601C34.342 13.7565 34.2366 14.8652 33.9157 15.9201C33.179 18.7843 31.576 21.3512 29.3257 23.2701L17.5257 33.4201L5.92568 23.2901C3.67085 21.3667 2.06733 18.792 1.33568 15.9201C1.02212 14.8602 0.926864 13.7478 1.05568 12.6501C1.48568 7.92007 4.94568 4.00007 9.75568 4.00007C11.4197 4.00204 13.0458 4.49703 14.4287 5.42253C15.8116 6.34802 16.8893 7.66253 17.5257 9.20007V9.20007Z" stroke="url(#paint1_linear)" stroke-width="1.5" stroke-linecap="round" stroke-linejoin="round"/>
<defs>
<linearGradient id="paint0_linear" x1="18" y1="14" x2="18" y2="23" gradientUnits="userSpaceOnUse">
<stop stop-color="#ED4991"/>
<stop offset="1" stop-color="#FB4E5F"/>
</linearGradient>
<linearGradient id="paint1_linear" x1="17.6358" y1="4" x2="17.6358" y2="33.4201" gradientUnits="userSpaceOnUse">
<stop stop-color="#FB4E5F"/>
<stop offset="1" stop-color="#ED4991"/>
</linearGradient>
</defs>
</svg>
